<svg width="14" height="15" viewBox="0 0 14 15" fill="none" xmlns="http://www.w3.org/2000/svg">
<g clip-path="url(#clip0_29037_102756)">
<path d="M4.8 1C4.95913 1 5.11174 1.06585 5.22426 1.18306C5.33679 1.30027 5.4 1.45924 5.4 1.625V3.75H9V1.625C9 1.45924 9.06321 1.30027 9.17574 1.18306C9.28826 1.06585 9.44087 1 9.6 1C9.75913 1 9.91174 1.06585 10.0243 1.18306C10.1368 1.30027 10.2 1.45924 10.2 1.625V3.75H11.4C11.5591 3.75 11.7117 3.81585 11.8243 3.93306C11.9368 4.05027 12 4.20924 12 4.375V8.125C12 9.28532 11.5575 10.3981 10.7698 11.2186C9.9822 12.0391 8.91391 12.5 7.8 12.5C7.7976 13.0425 7.788 13.5563 7.752 14.025C7.7028 14.6675 7.6008 15.2788 7.3716 15.805C7.13949 16.3617 6.7277 16.8163 6.2076 17.09C5.67 17.375 5.0028 17.5 4.2 17.5C3.0024 17.5 2.268 17.9125 1.8312 18.3975C1.43663 18.8312 1.21156 19.4026 1.2 20H0C0 19.23 0.2784 18.2912 0.9564 17.54C1.6488 16.775 2.7132 16.25 4.2 16.25C4.8972 16.25 5.3544 16.14 5.6616 15.9762C5.9508 15.8225 6.1416 15.6012 6.2784 15.2887C6.4236 14.9562 6.51 14.5125 6.5544 13.9262C6.5868 13.5012 6.5964 13.0288 6.5988 12.5C5.4851 12.4997 4.41712 12.0386 3.62973 11.2182C2.84233 10.3977 2.4 9.28511 2.4 8.125V4.375C2.4 4.20924 2.46321 4.05027 2.57574 3.93306C2.68826 3.81585 2.84087 3.75 3 3.75H4.2V1.625C4.2 1.45924 4.26321 1.30027 4.37574 1.18306C4.48826 1.06585 4.64087 1 4.8 1ZM3.6 5V8.125C3.6 8.9538 3.91607 9.74866 4.47868 10.3347C5.04129 10.9208 5.80435 11.25 6.6 11.25H7.8C8.59565 11.25 9.35871 10.9208 9.92132 10.3347C10.4839 9.74866 10.8 8.9538 10.8 8.125V5H3.6Z" fill="#878EAA"/>
</g>
<defs>
<clipPath id="clip0_29037_102756">
<rect width="14" height="14" fill="white" transform="translate(0 0.5)"/>
</clipPath>
</defs>
</svg>
