<svg width="14" height="15" viewBox="0 0 14 15" fill="none" xmlns="http://www.w3.org/2000/svg">
<g clip-path="url(#clip0_28008_101886)">
<path fill-rule="evenodd" clip-rule="evenodd" d="M9.4978 7.62853C9.53855 7.66917 9.57087 7.71745 9.59293 7.7706C9.61498 7.82375 9.62633 7.88074 9.62633 7.93828C9.62633 7.99583 9.61498 8.05281 9.59293 8.10596C9.57087 8.15911 9.53855 8.20739 9.4978 8.24803L6.8728 10.873C6.83216 10.9138 6.78388 10.9461 6.73073 10.9682C6.67758 10.9902 6.6206 11.0016 6.56305 11.0016C6.50551 11.0016 6.44853 10.9902 6.39537 10.9682C6.34222 10.9461 6.29394 10.9138 6.2533 10.873L4.9408 9.56053C4.90013 9.51986 4.86786 9.47156 4.84584 9.41842C4.82383 9.36527 4.8125 9.30831 4.8125 9.25078C4.8125 9.19326 4.82383 9.13629 4.84584 9.08315C4.86786 9.03 4.90013 8.98171 4.9408 8.94103C5.02295 8.85888 5.13437 8.81273 5.25055 8.81273C5.30808 8.81273 5.36504 8.82406 5.41819 8.84607C5.47134 8.86809 5.51963 8.90035 5.5603 8.94103L6.56305 9.94466L8.8783 7.62853C8.91894 7.58779 8.96722 7.55546 9.02037 7.53341C9.07353 7.51135 9.13051 7.5 9.18805 7.5C9.2456 7.5 9.30258 7.51135 9.35573 7.53341C9.40888 7.55546 9.45716 7.58779 9.4978 7.62853Z" fill="white"/>
<path d="M7 1.375C7.58016 1.375 8.13656 1.60547 8.5468 2.0157C8.95703 2.42594 9.1875 2.98234 9.1875 3.5625V4H4.8125V3.5625C4.8125 2.98234 5.04297 2.42594 5.4532 2.0157C5.86344 1.60547 6.41984 1.375 7 1.375ZM10.0625 4V3.5625C10.0625 2.75027 9.73984 1.97132 9.16551 1.39699C8.59118 0.822655 7.81223 0.5 7 0.5C6.18777 0.5 5.40882 0.822655 4.83449 1.39699C4.26016 1.97132 3.9375 2.75027 3.9375 3.5625V4H0.875V12.75C0.875 13.2141 1.05937 13.6592 1.38756 13.9874C1.71575 14.3156 2.16087 14.5 2.625 14.5H11.375C11.8391 14.5 12.2842 14.3156 12.6124 13.9874C12.9406 13.6592 13.125 13.2141 13.125 12.75V4H10.0625ZM1.75 4.875H12.25V12.75C12.25 12.9821 12.1578 13.2046 11.9937 13.3687C11.8296 13.5328 11.6071 13.625 11.375 13.625H2.625C2.39294 13.625 2.17038 13.5328 2.00628 13.3687C1.84219 13.2046 1.75 12.9821 1.75 12.75V4.875Z" fill="white"/>
</g>
<defs>
<clipPath id="clip0_28008_101886">
<rect width="14" height="14" fill="white" transform="translate(0 0.5)"/>
</clipPath>
</defs>
</svg>
