<svg width="14" height="15" viewBox="0 0 14 15" fill="none" xmlns="http://www.w3.org/2000/svg">
<path d="M0.526367 12.4473L0.5 7.4668C0.5 3.89828 3.39938 1 6.9707 1C10.5388 1.0001 13.4346 3.9488 13.4346 7.4668C13.4344 10.9854 10.6224 13.8454 7.12598 13.9326H6.86816L2.01562 13.8857H1.98242L1.94922 13.8896C1.89662 13.8962 1.84207 13.8938 1.73633 13.8867C1.08528 13.8171 0.572322 13.2775 0.526367 12.6357V12.4473Z" stroke="#878EAA" stroke-miterlimit="10"/>
<path d="M6.07228 11.6174C6.08569 9.90263 7.47979 8.51604 9.20902 8.49595C7.47309 8.47585 6.07898 7.07587 6.07228 5.34766C6.07228 7.06917 4.66477 8.46916 2.93555 8.49595C4.66477 8.51604 6.05888 9.90263 6.07228 11.6174Z" fill="#878EAA"/>
<path d="M8.94002 6.62784C8.94672 5.59627 9.78453 4.76565 10.8234 4.75226C9.78453 4.73886 8.94002 3.90155 8.94002 2.86328C8.94002 3.90155 8.09552 4.73886 7.05664 4.75226C8.09552 4.76565 8.93332 5.59627 8.94002 6.62784Z" fill="#878EAA"/>
<path d="M14.0004 9.36217C13.3838 11.9076 11.3731 13.9037 8.82617 14.4999L12.0366 14.4798C12.1104 14.4798 12.1774 14.4798 12.2511 14.4798C13.1425 14.4195 13.8865 13.7095 13.9669 12.8052C13.9736 12.698 13.9803 12.5975 13.9669 12.4904L13.9937 9.35547L14.0004 9.36217Z" fill="#878EAA"/>
</svg>
