<svg width="14" height="14" viewBox="0 0 14 14" fill="none" xmlns="http://www.w3.org/2000/svg">
<path d="M12.8152 10.6938C12.8152 10.9038 12.7685 11.1196 12.6693 11.3296C12.5702 11.5396 12.4418 11.738 12.2727 11.9246C11.9868 12.2396 11.6718 12.4671 11.316 12.613C10.966 12.7588 10.5868 12.8346 10.1785 12.8346C9.58352 12.8346 8.94768 12.6946 8.27685 12.4088C7.60602 12.123 6.93518 11.738 6.27018 11.2538C5.59935 10.7638 4.96352 10.2213 4.35685 9.62047C3.75602 9.0138 3.21352 8.37797 2.72935 7.71297C2.25102 7.04797 1.86602 6.38297 1.58602 5.7238C1.30602 5.0588 1.16602 4.42297 1.16602 3.8163C1.16602 3.41964 1.23602 3.04047 1.37602 2.69047C1.51602 2.33464 1.73768 2.00797 2.04685 1.7163C2.42018 1.3488 2.82852 1.16797 3.26018 1.16797C3.42352 1.16797 3.58685 1.20297 3.73268 1.27297C3.88435 1.34297 4.01852 1.44797 4.12352 1.59964L5.47685 3.50714C5.58185 3.65297 5.65768 3.78714 5.71018 3.91547C5.76268 4.03797 5.79185 4.16047 5.79185 4.2713C5.79185 4.4113 5.75102 4.5513 5.66935 4.68547C5.59352 4.81964 5.48268 4.95964 5.34268 5.09964L4.89935 5.56047C4.83518 5.62464 4.80602 5.70047 4.80602 5.7938C4.80602 5.84047 4.81185 5.8813 4.82352 5.92797C4.84102 5.97464 4.85852 6.00964 4.87018 6.04464C4.97518 6.23714 5.15602 6.48797 5.41268 6.7913C5.67518 7.09464 5.95518 7.4038 6.25852 7.71297C6.57352 8.02214 6.87685 8.30797 7.18602 8.57047C7.48935 8.82713 7.74018 9.00213 7.93852 9.10713C7.96768 9.1188 8.00268 9.1363 8.04352 9.1538C8.09018 9.1713 8.13685 9.17713 8.18935 9.17713C8.28852 9.17713 8.36435 9.14214 8.42852 9.07797L8.87185 8.64047C9.01768 8.49464 9.15768 8.3838 9.29185 8.3138C9.42602 8.23214 9.56018 8.1913 9.70601 8.1913C9.81685 8.1913 9.93352 8.21464 10.0618 8.26714C10.1902 8.31964 10.3243 8.39547 10.4702 8.49464L12.401 9.86547C12.5527 9.97047 12.6577 10.093 12.7218 10.2388C12.7802 10.3846 12.8152 10.5305 12.8152 10.6938Z" stroke="#878EAA" stroke-miterlimit="10"/>
<path d="M10.7917 5.2526C10.7917 4.9026 10.5175 4.36594 10.1092 3.92844C9.73583 3.52594 9.24 3.21094 8.75 3.21094" stroke="#878EAA" stroke-linecap="round" stroke-linejoin="round"/>
<path d="M12.8333 5.2513C12.8333 2.9938 11.0075 1.16797 8.75 1.16797" stroke="#878EAA" stroke-linecap="round" stroke-linejoin="round"/>
</svg>
