<svg width="12" height="12" viewBox="0 0 12 12" fill="none" xmlns="http://www.w3.org/2000/svg">
<g clip-path="url(#clip0_27769_89391)">
<path d="M1 0.625C1 0.525544 1.03951 0.430161 1.10983 0.359835C1.18016 0.289509 1.27554 0.25 1.375 0.25H2.5C2.58365 0.250023 2.66489 0.278013 2.7308 0.329519C2.79671 0.381024 2.84351 0.453088 2.86375 0.53425L3.1675 1.75H11.875C11.9301 1.75005 11.9844 1.76223 12.0343 1.78566C12.0841 1.8091 12.1281 1.84322 12.1633 1.8856C12.1984 1.92798 12.2238 1.97759 12.2377 2.03089C12.2515 2.08419 12.2534 2.13988 12.2433 2.194L11.1183 8.194C11.1022 8.27993 11.0566 8.35754 10.9893 8.41342C10.9221 8.46929 10.8374 8.49992 10.75 8.5H4C3.91257 8.49992 3.82792 8.46929 3.76068 8.41342C3.69344 8.35754 3.64784 8.27993 3.63175 8.194L2.5075 2.20525L2.2075 1H1.375C1.27554 1 1.18016 0.960491 1.10983 0.890165C1.03951 0.819839 1 0.724456 1 0.625ZM3.3265 2.5L4.31125 7.75H10.4388L11.4235 2.5H3.3265ZM4.75 8.5C4.35218 8.5 3.97064 8.65804 3.68934 8.93934C3.40804 9.22064 3.25 9.60218 3.25 10C3.25 10.3978 3.40804 10.7794 3.68934 11.0607C3.97064 11.342 4.35218 11.5 4.75 11.5C5.14783 11.5 5.52936 11.342 5.81066 11.0607C6.09197 10.7794 6.25 10.3978 6.25 10C6.25 9.60218 6.09197 9.22064 5.81066 8.93934C5.52936 8.65804 5.14783 8.5 4.75 8.5ZM10 8.5C9.60218 8.5 9.22064 8.65804 8.93934 8.93934C8.65804 9.22064 8.5 9.60218 8.5 10C8.5 10.3978 8.65804 10.7794 8.93934 11.0607C9.22064 11.342 9.60218 11.5 10 11.5C10.3978 11.5 10.7794 11.342 11.0607 11.0607C11.342 10.7794 11.5 10.3978 11.5 10C11.5 9.60218 11.342 9.22064 11.0607 8.93934C10.7794 8.65804 10.3978 8.5 10 8.5ZM4.75 9.25C4.94891 9.25 5.13968 9.32902 5.28033 9.46967C5.42098 9.61032 5.5 9.80109 5.5 10C5.5 10.1989 5.42098 10.3897 5.28033 10.5303C5.13968 10.671 4.94891 10.75 4.75 10.75C4.55109 10.75 4.36032 10.671 4.21967 10.5303C4.07902 10.3897 4 10.1989 4 10C4 9.80109 4.07902 9.61032 4.21967 9.46967C4.36032 9.32902 4.55109 9.25 4.75 9.25ZM10 9.25C10.1989 9.25 10.3897 9.32902 10.5303 9.46967C10.671 9.61032 10.75 9.80109 10.75 10C10.75 10.1989 10.671 10.3897 10.5303 10.5303C10.3897 10.671 10.1989 10.75 10 10.75C9.80109 10.75 9.61032 10.671 9.46967 10.5303C9.32902 10.3897 9.25 10.1989 9.25 10C9.25 9.80109 9.32902 9.61032 9.46967 9.46967C9.61032 9.32902 9.80109 9.25 10 9.25Z" fill="#999999"/>
</g>
<defs>
<clipPath id="clip0_27769_89391">
<rect width="12" height="12" fill="white"/>
</clipPath>
</defs>
</svg>
