<svg width="14" height="15" viewBox="0 0 14 15" fill="none" xmlns="http://www.w3.org/2000/svg">
<g clip-path="url(#clip0_29037_53956)">
<path d="M4.375 7.5C4.375 7.73206 4.28281 7.95462 4.11872 8.11872C3.95462 8.28281 3.73206 8.375 3.5 8.375C3.26794 8.375 3.04538 8.28281 2.88128 8.11872C2.71719 7.95462 2.625 7.73206 2.625 7.5C2.625 7.26794 2.71719 7.04538 2.88128 6.88128C3.04538 6.71719 3.26794 6.625 3.5 6.625C3.73206 6.625 3.95462 6.71719 4.11872 6.88128C4.28281 7.04538 4.375 7.26794 4.375 7.5ZM7.875 7.5C7.875 7.73206 7.78281 7.95462 7.61872 8.11872C7.45462 8.28281 7.23206 8.375 7 8.375C6.76794 8.375 6.54538 8.28281 6.38128 8.11872C6.21719 7.95462 6.125 7.73206 6.125 7.5C6.125 7.26794 6.21719 7.04538 6.38128 6.88128C6.54538 6.71719 6.76794 6.625 7 6.625C7.23206 6.625 7.45462 6.71719 7.61872 6.88128C7.78281 7.04538 7.875 7.26794 7.875 7.5ZM10.5 8.375C10.7321 8.375 10.9546 8.28281 11.1187 8.11872C11.2828 7.95462 11.375 7.73206 11.375 7.5C11.375 7.26794 11.2828 7.04538 11.1187 6.88128C10.9546 6.71719 10.7321 6.625 10.5 6.625C10.2679 6.625 10.0454 6.71719 9.88128 6.88128C9.71719 7.04538 9.625 7.26794 9.625 7.5C9.625 7.73206 9.71719 7.95462 9.88128 8.11872C10.0454 8.28281 10.2679 8.375 10.5 8.375Z" fill="#878EAA" fill-opacity="0.4"/>
<path d="M1.89437 14.3276L1.91188 14.3241C3.51312 14.0065 4.49137 13.5874 4.94637 13.3572C5.61614 13.5365 6.30666 13.6265 7 13.625C10.8658 13.625 14 10.8827 14 7.5C14 4.11725 10.8658 1.375 7 1.375C3.13425 1.375 0 4.11725 0 7.5C0 9.04 0.650125 10.4487 1.72375 11.525C1.64892 12.2164 1.49508 12.8969 1.26525 13.5532L1.26262 13.5629C1.19724 13.7508 1.12604 13.9367 1.04912 14.1202C0.98 14.283 1.11388 14.465 1.288 14.437C1.4907 14.4038 1.69285 14.3673 1.89437 14.3276ZM2.59437 11.6081C2.60663 11.48 2.59048 11.3508 2.54707 11.2296C2.50367 11.1085 2.43407 10.9984 2.34325 10.9072C1.41575 9.97625 0.875 8.7845 0.875 7.5C0.875 4.707 3.5035 2.25 7 2.25C10.4965 2.25 13.125 4.707 13.125 7.5C13.125 10.293 10.4965 12.75 7 12.75C6.38317 12.7515 5.76885 12.6715 5.173 12.512C4.96473 12.4562 4.74319 12.4793 4.55088 12.5767C4.21225 12.7482 3.46587 13.0755 2.24612 13.3581C2.41614 12.7868 2.53273 12.201 2.59437 11.6081Z" fill="#878EAA" fill-opacity="0.4"/>
</g>
<defs>
<clipPath id="clip0_29037_53956">
<rect width="14" height="14" fill="white" transform="translate(0 0.5)"/>
</clipPath>
</defs>
</svg>
