<svg width="12" height="13" viewBox="0 0 12 13" fill="none" xmlns="http://www.w3.org/2000/svg">
<path d="M11.5254 0.500162C11.5082 0.500705 11.491 0.502209 11.474 0.504667H7.84336C7.78222 0.503802 7.72152 0.515097 7.66478 0.537894C7.60805 0.560691 7.55641 0.594537 7.51287 0.637463C7.46933 0.680389 7.43475 0.731541 7.41115 0.787945C7.38756 0.844349 7.3754 0.90488 7.3754 0.966021C7.3754 1.02716 7.38756 1.08769 7.41115 1.1441C7.43475 1.2005 7.46933 1.25165 7.51287 1.29458C7.55641 1.3375 7.60805 1.37135 7.66478 1.39415C7.72152 1.41694 7.78222 1.42824 7.84336 1.42737H10.4206L4.74883 7.0988C4.70464 7.14133 4.66938 7.19225 4.6451 7.24857C4.62083 7.30489 4.60802 7.36548 4.60744 7.42681C4.60686 7.48814 4.61851 7.54897 4.64171 7.60574C4.66491 7.66251 4.6992 7.71408 4.74257 7.75745C4.78594 7.80082 4.83752 7.8351 4.89429 7.8583C4.95107 7.8815 5.0119 7.89315 5.07323 7.89257C5.13456 7.89199 5.19516 7.87919 5.25148 7.85491C5.30781 7.83064 5.35873 7.79538 5.40126 7.7512L11.073 2.07977V4.65685C11.0722 4.71799 11.0835 4.77868 11.1063 4.83541C11.1291 4.89215 11.1629 4.94378 11.2058 4.98732C11.2488 5.03086 11.2999 5.06543 11.3563 5.08903C11.4127 5.11262 11.4733 5.12478 11.5344 5.12478C11.5956 5.12478 11.6561 5.11262 11.7125 5.08903C11.7689 5.06543 11.8201 5.03086 11.863 4.98732C11.9059 4.94378 11.9398 4.89215 11.9626 4.83541C11.9854 4.77868 11.9967 4.71799 11.9958 4.65685V1.02461C12.005 0.958191 11.9996 0.890566 11.98 0.826444C11.9603 0.762323 11.927 0.703247 11.8822 0.653329C11.8374 0.603412 11.7823 0.563852 11.7207 0.537405C11.6591 0.510958 11.5924 0.498229 11.5254 0.500162Z" fill="#343E55"/>
<path d="M5.07521 2.35157C3.92369 2.35157 3.05348 2.34991 2.36007 2.42816C1.6667 2.5064 1.11166 2.67135 0.714598 3.06884C0.317533 3.46633 0.154389 4.02029 0.0765996 4.71334C-0.00121696 5.40634 1.12247e-06 6.2764 1.12247e-06 7.42651C1.12247e-06 8.5769 -0.000953957 9.44724 0.078399 10.1406C0.157752 10.8339 0.324731 11.3882 0.722718 11.7851C1.1207 12.1819 1.67473 12.3466 2.36731 12.4248C3.05989 12.5031 3.92821 12.5014 5.07521 12.5014C6.22234 12.5014 7.09043 12.5019 7.7831 12.423C8.47577 12.3441 9.03086 12.1787 9.42857 11.7815C9.82628 11.3842 9.99173 10.83 10.0711 10.137C10.1504 9.44397 10.1504 8.57491 10.1504 7.42651C10.1513 7.36538 10.14 7.30468 10.1172 7.24795C10.0944 7.19122 10.0605 7.13958 10.0176 7.09604C9.97466 7.05251 9.9235 7.01793 9.8671 6.99434C9.81069 6.97074 9.75016 6.95859 9.68901 6.95859C9.62787 6.95859 9.56733 6.97074 9.51093 6.99434C9.45452 7.01793 9.40336 7.05251 9.36043 7.09604C9.31751 7.13958 9.28366 7.19122 9.26086 7.24795C9.23806 7.30468 9.22677 7.36538 9.22763 7.42651C9.22763 8.57404 9.22366 9.4299 9.15464 10.0324C9.08564 10.635 8.95852 10.9469 8.77616 11.1291C8.5938 11.3112 8.28193 11.438 7.67946 11.5066C7.07699 11.5753 6.22159 11.5787 5.07519 11.5787C3.92866 11.5787 3.07349 11.5756 2.47092 11.5075C1.86836 11.4394 1.55633 11.3133 1.37422 11.1318C1.19211 10.9502 1.06475 10.6381 0.995745 10.0351C0.926737 9.43218 0.922755 8.57596 0.922755 7.42649C0.922755 6.27671 0.925306 5.4202 0.993042 4.81698C1.06078 4.21376 1.18716 3.90221 1.36791 3.72127C1.54867 3.54033 1.86025 3.41361 2.46369 3.34552C3.06714 3.27743 3.92415 3.27433 5.07521 3.27433C5.13634 3.2752 5.19705 3.2639 5.25378 3.24111C5.31052 3.21831 5.36215 3.18446 5.40569 3.14154C5.44923 3.09861 5.48381 3.04746 5.50741 2.99106C5.53101 2.93465 5.54316 2.87412 5.54316 2.81298C5.54316 2.75184 5.53101 2.69131 5.50741 2.6349C5.48381 2.5785 5.44923 2.52735 5.40569 2.48442C5.36215 2.44149 5.31052 2.40765 5.25378 2.38485C5.19705 2.36205 5.13634 2.3507 5.07521 2.35157Z" fill="#343E55"/>
</svg>
