<svg width="14" height="15" viewBox="0 0 14 15" fill="none" xmlns="http://www.w3.org/2000/svg">
<g clip-path="url(#clip0_29037_65078)">
<g clip-path="url(#clip1_29037_65078)">
<path d="M4.5 10.5C4.5 10.5 4 10.5 4 10C4 9.5 4.5 8 7 8C9.5 8 10 9.5 10 10C10 10.5 9.5 10.5 9.5 10.5H4.5ZM7 7.5C7.39782 7.5 7.77936 7.34196 8.06066 7.06066C8.34196 6.77936 8.5 6.39782 8.5 6C8.5 5.60218 8.34196 5.22064 8.06066 4.93934C7.77936 4.65804 7.39782 4.5 7 4.5C6.60218 4.5 6.22064 4.65804 5.93934 4.93934C5.65804 5.22064 5.5 5.60218 5.5 6C5.5 6.39782 5.65804 6.77936 5.93934 7.06066C6.22064 7.34196 6.60218 7.5 7 7.5Z" fill="#878EAA"/>
</g>
<path d="M2.625 0.5H11.375C11.8391 0.5 12.2842 0.684374 12.6124 1.01256C12.9406 1.34075 13.125 1.78587 13.125 2.25V12.75C13.125 13.2141 12.9406 13.6592 12.6124 13.9874C12.2842 14.3156 11.8391 14.5 11.375 14.5H2.625C2.16087 14.5 1.71575 14.3156 1.38756 13.9874C1.05937 13.6592 0.875 13.2141 0.875 12.75V11.875H1.75V12.75C1.75 12.9821 1.84219 13.2046 2.00628 13.3687C2.17038 13.5328 2.39294 13.625 2.625 13.625H11.375C11.6071 13.625 11.8296 13.5328 11.9937 13.3687C12.1578 13.2046 12.25 12.9821 12.25 12.75V2.25C12.25 2.01794 12.1578 1.79538 11.9937 1.63128C11.8296 1.46719 11.6071 1.375 11.375 1.375H2.625C2.39294 1.375 2.17038 1.46719 2.00628 1.63128C1.84219 1.79538 1.75 2.01794 1.75 2.25V3.125H0.875V2.25C0.875 1.78587 1.05937 1.34075 1.38756 1.01256C1.71575 0.684374 2.16087 0.5 2.625 0.5Z" fill="#878EAA"/>
<path d="M0.875 4.875V4.4375C0.875 4.32147 0.921094 4.21019 1.00314 4.12814C1.08519 4.04609 1.19647 4 1.3125 4C1.42853 4 1.53981 4.04609 1.62186 4.12814C1.70391 4.21019 1.75 4.32147 1.75 4.4375V4.875H2.1875C2.30353 4.875 2.41481 4.92109 2.49686 5.00314C2.57891 5.08519 2.625 5.19647 2.625 5.3125C2.625 5.42853 2.57891 5.53981 2.49686 5.62186C2.41481 5.70391 2.30353 5.75 2.1875 5.75H0.4375C0.321468 5.75 0.210188 5.70391 0.128141 5.62186C0.0460936 5.53981 0 5.42853 0 5.3125C0 5.19647 0.0460936 5.08519 0.128141 5.00314C0.210188 4.92109 0.321468 4.875 0.4375 4.875H0.875ZM0.875 7.5V7.0625C0.875 6.94647 0.921094 6.83519 1.00314 6.75314C1.08519 6.67109 1.19647 6.625 1.3125 6.625C1.42853 6.625 1.53981 6.67109 1.62186 6.75314C1.70391 6.83519 1.75 6.94647 1.75 7.0625V7.5H2.1875C2.30353 7.5 2.41481 7.54609 2.49686 7.62814C2.57891 7.71019 2.625 7.82147 2.625 7.9375C2.625 8.05353 2.57891 8.16481 2.49686 8.24686C2.41481 8.32891 2.30353 8.375 2.1875 8.375H0.4375C0.321468 8.375 0.210188 8.32891 0.128141 8.24686C0.0460936 8.16481 0 8.05353 0 7.9375C0 7.82147 0.0460936 7.71019 0.128141 7.62814C0.210188 7.54609 0.321468 7.5 0.4375 7.5H0.875ZM0.875 10.125V9.6875C0.875 9.57147 0.921094 9.46019 1.00314 9.37814C1.08519 9.29609 1.19647 9.25 1.3125 9.25C1.42853 9.25 1.53981 9.29609 1.62186 9.37814C1.70391 9.46019 1.75 9.57147 1.75 9.6875V10.125H2.1875C2.30353 10.125 2.41481 10.1711 2.49686 10.2531C2.57891 10.3352 2.625 10.4465 2.625 10.5625C2.625 10.6785 2.57891 10.7898 2.49686 10.8719C2.41481 10.9539 2.30353 11 2.1875 11H0.4375C0.321468 11 0.210188 10.9539 0.128141 10.8719C0.0460936 10.7898 0 10.6785 0 10.5625C0 10.4465 0.0460936 10.3352 0.128141 10.2531C0.210188 10.1711 0.321468 10.125 0.4375 10.125H0.875Z" fill="#878EAA"/>
</g>
<defs>
<clipPath id="clip0_29037_65078">
<rect width="14" height="14" fill="white" transform="translate(0 0.5)"/>
</clipPath>
<clipPath id="clip1_29037_65078">
<rect width="6" height="6" fill="white" transform="translate(4 4.5)"/>
</clipPath>
</defs>
</svg>
