<svg width="14" height="15" viewBox="0 0 14 15" fill="none" xmlns="http://www.w3.org/2000/svg">
<path d="M0.875 2.6875C0.875 2.3394 1.01328 2.00556 1.25942 1.75942C1.50556 1.51328 1.8394 1.375 2.1875 1.375H4.8125C5.1606 1.375 5.49444 1.51328 5.74058 1.75942C5.98672 2.00556 6.125 2.3394 6.125 2.6875V5.3125C6.125 5.6606 5.98672 5.99444 5.74058 6.24058C5.49444 6.48672 5.1606 6.625 4.8125 6.625H2.1875C1.8394 6.625 1.50556 6.48672 1.25942 6.24058C1.01328 5.99444 0.875 5.6606 0.875 5.3125V2.6875ZM2.1875 2.25C2.07147 2.25 1.96019 2.29609 1.87814 2.37814C1.79609 2.46019 1.75 2.57147 1.75 2.6875V5.3125C1.75 5.42853 1.79609 5.53981 1.87814 5.62186C1.96019 5.70391 2.07147 5.75 2.1875 5.75H4.8125C4.92853 5.75 5.03981 5.70391 5.12186 5.62186C5.20391 5.53981 5.25 5.42853 5.25 5.3125V2.6875C5.25 2.57147 5.20391 2.46019 5.12186 2.37814C5.03981 2.29609 4.92853 2.25 4.8125 2.25H2.1875ZM7.875 2.6875C7.875 2.3394 8.01328 2.00556 8.25942 1.75942C8.50556 1.51328 8.8394 1.375 9.1875 1.375H11.8125C12.1606 1.375 12.4944 1.51328 12.7406 1.75942C12.9867 2.00556 13.125 2.3394 13.125 2.6875V5.3125C13.125 5.6606 12.9867 5.99444 12.7406 6.24058C12.4944 6.48672 12.1606 6.625 11.8125 6.625H9.1875C8.8394 6.625 8.50556 6.48672 8.25942 6.24058C8.01328 5.99444 7.875 5.6606 7.875 5.3125V2.6875ZM9.1875 2.25C9.07147 2.25 8.96019 2.29609 8.87814 2.37814C8.79609 2.46019 8.75 2.57147 8.75 2.6875V5.3125C8.75 5.42853 8.79609 5.53981 8.87814 5.62186C8.96019 5.70391 9.07147 5.75 9.1875 5.75H11.8125C11.9285 5.75 12.0398 5.70391 12.1219 5.62186C12.2039 5.53981 12.25 5.42853 12.25 5.3125V2.6875C12.25 2.57147 12.2039 2.46019 12.1219 2.37814C12.0398 2.29609 11.9285 2.25 11.8125 2.25H9.1875ZM0.875 9.6875C0.875 9.3394 1.01328 9.00556 1.25942 8.75942C1.50556 8.51328 1.8394 8.375 2.1875 8.375H4.8125C5.1606 8.375 5.49444 8.51328 5.74058 8.75942C5.98672 9.00556 6.125 9.3394 6.125 9.6875V12.3125C6.125 12.6606 5.98672 12.9944 5.74058 13.2406C5.49444 13.4867 5.1606 13.625 4.8125 13.625H2.1875C1.8394 13.625 1.50556 13.4867 1.25942 13.2406C1.01328 12.9944 0.875 12.6606 0.875 12.3125V9.6875ZM2.1875 9.25C2.07147 9.25 1.96019 9.29609 1.87814 9.37814C1.79609 9.46019 1.75 9.57147 1.75 9.6875V12.3125C1.75 12.4285 1.79609 12.5398 1.87814 12.6219C1.96019 12.7039 2.07147 12.75 2.1875 12.75H4.8125C4.92853 12.75 5.03981 12.7039 5.12186 12.6219C5.20391 12.5398 5.25 12.4285 5.25 12.3125V9.6875C5.25 9.57147 5.20391 9.46019 5.12186 9.37814C5.03981 9.29609 4.92853 9.25 4.8125 9.25H2.1875ZM7.875 9.6875C7.875 9.3394 8.01328 9.00556 8.25942 8.75942C8.50556 8.51328 8.8394 8.375 9.1875 8.375H11.8125C12.1606 8.375 12.4944 8.51328 12.7406 8.75942C12.9867 9.00556 13.125 9.3394 13.125 9.6875V12.3125C13.125 12.6606 12.9867 12.9944 12.7406 13.2406C12.4944 13.4867 12.1606 13.625 11.8125 13.625H9.1875C8.8394 13.625 8.50556 13.4867 8.25942 13.2406C8.01328 12.9944 7.875 12.6606 7.875 12.3125V9.6875ZM9.1875 9.25C9.07147 9.25 8.96019 9.29609 8.87814 9.37814C8.79609 9.46019 8.75 9.57147 8.75 9.6875V12.3125C8.75 12.4285 8.79609 12.5398 8.87814 12.6219C8.96019 12.7039 9.07147 12.75 9.1875 12.75H11.8125C11.9285 12.75 12.0398 12.7039 12.1219 12.6219C12.2039 12.5398 12.25 12.4285 12.25 12.3125V9.6875C12.25 9.57147 12.2039 9.46019 12.1219 9.37814C12.0398 9.29609 11.9285 9.25 11.8125 9.25H9.1875Z" fill="#878EAA"/>
</svg>
