<svg width="15" height="17" viewBox="0 0 15 17" fill="none" xmlns="http://www.w3.org/2000/svg">
<path d="M5.73139 14.0417C5.89747 14.0417 6.05672 13.9757 6.17419 13.8583C6.29152 13.741 6.35746 13.5819 6.35746 13.4158V5.51249C6.35746 5.289 6.2381 5.08238 6.0445 4.97064C5.85076 4.85875 5.61216 4.85875 5.41843 4.97064C5.22468 5.08238 5.10547 5.28899 5.10547 5.51249V13.4158C5.10547 13.5819 5.17141 13.741 5.28873 13.8583C5.4062 13.9757 5.56545 14.0417 5.73139 14.0417H5.73139Z" fill="#999999"/>
<path d="M9.26668 14.0417C9.43262 14.0417 9.59187 13.9757 9.70934 13.8583C9.82666 13.741 9.8926 13.5819 9.8926 13.4158V5.51249C9.8926 5.289 9.77339 5.08238 9.57965 4.97064C9.3859 4.85875 9.14731 4.85875 8.95358 4.97064C8.75998 5.08238 8.64062 5.28899 8.64062 5.51249V13.4158C8.64062 13.5819 8.70656 13.741 8.82389 13.8583C8.94135 13.9757 9.1006 14.0417 9.26669 14.0417H9.26668Z" fill="#999999"/>
<path d="M0.669114 3.13917H1.3598V13.454C1.3598 14.3945 1.7336 15.2965 2.39898 15.9614C3.06422 16.6265 3.96653 17 4.90745 17H10.0909C11.0318 17 11.9341 16.6265 12.5993 15.9614C13.2647 15.2964 13.6385 14.3945 13.6385 13.454V3.13917H14.3292C14.5528 3.13917 14.7595 3.02001 14.8713 2.82635C14.9832 2.63268 14.9832 2.39419 14.8713 2.20054C14.7595 2.00702 14.5528 1.88771 14.3292 1.88771H10.5521V1.4601C10.5521 1.07279 10.3981 0.701461 10.1242 0.427611C9.85024 0.153776 9.47878 0 9.09127 0H5.90695C5.51947 0 5.14799 0.153795 4.87402 0.427611C4.60007 0.701446 4.44608 1.07275 4.44608 1.4601V1.88771H0.669002C0.445417 1.88771 0.238714 2.00702 0.126922 2.20054C0.0149844 2.3942 0.0149844 2.63269 0.126922 2.82635C0.238714 3.02001 0.445414 3.13917 0.669002 3.13917H0.669114ZM5.69827 1.46009C5.69827 1.34485 5.79172 1.25144 5.90701 1.25144H9.09133C9.14679 1.25144 9.19978 1.27341 9.23893 1.31255C9.27809 1.35169 9.30007 1.4048 9.30007 1.46009V1.8877H5.69827L5.69827 1.46009ZM2.61191 3.13917H12.3863V13.454C12.3863 14.0625 12.1443 14.6461 11.7139 15.0765C11.2835 15.5067 10.6996 15.7486 10.0907 15.7486H4.9073C4.29841 15.7486 3.71455 15.5067 3.28412 15.0765C2.85368 14.6461 2.61176 14.0625 2.61176 13.454L2.61191 3.13917Z" fill="#999999"/>
</svg>
