<svg width="17" height="17" viewBox="0 0 17 17" fill="none" xmlns="http://www.w3.org/2000/svg">
<circle cx="8.92228" cy="8.71915" r="7.96915" fill="#899AA2"/>
<path fill-rule="evenodd" clip-rule="evenodd" d="M6.79694 5.26184C6.44554 5.25624 6.10713 5.43961 5.85749 5.77092C5.60784 6.10223 5.46782 6.5538 5.46875 7.02452C5.46875 8.00706 6.0634 8.80356 6.79694 8.80356C7.53048 8.80356 8.12513 8.00706 8.12513 7.02452C8.12607 6.5538 7.98604 6.10223 7.7364 5.77092C7.48675 5.43961 7.14835 5.25624 6.79694 5.26184ZM14.2313 10.0892C13.807 12.3824 11.5938 14.297 8.9195 14.297C6.26657 14.297 4.06629 12.4103 3.61703 10.143C3.52598 9.57723 3.98939 9.44374 4.4259 9.54933C5.88616 9.97156 7.40053 10.177 8.9205 10.159C10.437 10.1766 11.948 9.97183 13.4051 9.55133C13.8295 9.44374 14.2839 9.56527 14.2313 10.0892ZM12.7905 10.4093C12.749 10.4252 12.707 10.4371 12.6646 10.4511C12.6602 10.4531 12.8004 10.4073 12.7962 10.4093C11.5362 10.7561 10.2337 10.9245 8.92682 10.9093C7.36726 10.9093 5.97246 10.736 5.01257 10.3913C4.31667 10.1841 4.45015 11.003 4.93926 11.254C6.19052 11.8236 7.55189 12.1107 8.92662 12.0947C10.5619 12.0947 12.0191 11.7142 12.9815 11.2221C13.437 10.9292 13.527 10.1443 12.7905 10.4093ZM11.842 5.26184C11.4907 5.25628 11.1523 5.43829 10.9027 5.76713C10.653 6.09598 10.513 6.5442 10.5138 7.01147C10.5068 7.64859 10.7584 8.24133 11.1722 8.56261C11.5859 8.88388 12.0978 8.88388 12.5116 8.56261C12.9253 8.24133 13.1769 7.64859 13.1699 7.01147C13.1708 6.54427 13.0308 6.0961 12.7812 5.76727C12.5316 5.43843 12.1933 5.25638 11.842 5.26184Z" fill="white"/>
</svg>
