<svg width="37" height="37" viewBox="0 0 37 37" fill="none" xmlns="http://www.w3.org/2000/svg">
<circle cx="18.5" cy="18.5" r="18.5" fill="#F3F5F6"/>
<g clip-path="url(#clip0_27769_89369)">
<path fill-rule="evenodd" clip-rule="evenodd" d="M21.459 18.6523C21.5073 18.7004 21.5456 18.7576 21.5717 18.8206C21.5978 18.8836 21.6113 18.9511 21.6113 19.0192C21.6113 19.0874 21.5978 19.1549 21.5717 19.2179C21.5456 19.2809 21.5073 19.3381 21.459 19.3862L18.3491 22.4961C18.301 22.5444 18.2438 22.5827 18.1808 22.6088C18.1178 22.635 18.0503 22.6484 17.9821 22.6484C17.914 22.6484 17.8464 22.635 17.7835 22.6088C17.7205 22.5827 17.6633 22.5444 17.6152 22.4961L16.0602 20.9412C16.012 20.893 15.9738 20.8358 15.9477 20.7728C15.9216 20.7098 15.9082 20.6424 15.9082 20.5742C15.9082 20.506 15.9216 20.4386 15.9477 20.3756C15.9738 20.3126 16.012 20.2554 16.0602 20.2072C16.1575 20.1099 16.2895 20.0552 16.4272 20.0552C16.4953 20.0552 16.5628 20.0687 16.6258 20.0947C16.6887 20.1208 16.746 20.159 16.7941 20.2072L17.9821 21.3963L20.7251 18.6523C20.7732 18.604 20.8304 18.5657 20.8934 18.5396C20.9564 18.5135 21.0239 18.5 21.092 18.5C21.1602 18.5 21.2277 18.5135 21.2907 18.5396C21.3537 18.5657 21.4109 18.604 21.459 18.6523Z" fill="#343E55"/>
<path d="M18.5006 11.2437C19.1879 11.2437 19.8471 11.5167 20.3331 12.0027C20.8192 12.4887 21.0922 13.1479 21.0922 13.8353V14.3536H15.909V13.8353C15.909 13.1479 16.1821 12.4887 16.6681 12.0027C17.1541 11.5167 17.8133 11.2437 18.5006 11.2437ZM22.1288 14.3536V13.8353C22.1288 12.873 21.7466 11.9501 21.0662 11.2697C20.3857 10.5893 19.4629 10.207 18.5006 10.207C17.5383 10.207 16.6155 10.5893 15.9351 11.2697C15.2546 11.9501 14.8724 12.873 14.8724 13.8353V14.3536H11.2441V24.72C11.2441 25.2698 11.4626 25.7972 11.8514 26.186C12.2402 26.5748 12.7675 26.7932 13.3174 26.7932H23.6838C24.2337 26.7932 24.761 26.5748 25.1498 26.186C25.5386 25.7972 25.7571 25.2698 25.7571 24.72V14.3536H22.1288ZM12.2808 15.3902H24.7204V24.72C24.7204 24.9949 24.6112 25.2586 24.4168 25.453C24.2224 25.6474 23.9587 25.7566 23.6838 25.7566H13.3174C13.0425 25.7566 12.7788 25.6474 12.5844 25.453C12.39 25.2586 12.2808 24.9949 12.2808 24.72V15.3902Z" fill="#343E55"/>
</g>
<defs>
<clipPath id="clip0_27769_89369">
<rect width="16.5862" height="16.5862" fill="white" transform="translate(10.207 10.2109)"/>
</clipPath>
</defs>
</svg>
