<svg width="37" height="37" viewBox="0 0 37 37" fill="none" xmlns="http://www.w3.org/2000/svg">
<circle cx="18.5" cy="18.5" r="18.5" fill="#F3F5F6"/>
<g clip-path="url(#clip0_27769_89337)">
<path d="M24.72 11.2437C24.9949 11.2437 25.2586 11.3529 25.453 11.5473C25.6474 11.7417 25.7566 12.0054 25.7566 12.2803V20.5734C25.7566 20.8483 25.6474 21.112 25.453 21.3064C25.2586 21.5008 24.9949 21.61 24.72 21.61H14.7828C14.2329 21.6102 13.7057 21.8287 13.3169 22.2175L11.2437 24.2908V12.2803C11.2437 12.0054 11.3529 11.7417 11.5473 11.5473C11.7417 11.3529 12.0054 11.2437 12.2803 11.2437H24.72ZM12.2803 10.207C11.7304 10.207 11.2031 10.4255 10.8143 10.8143C10.4255 11.2031 10.207 11.7304 10.207 12.2803V25.542C10.2071 25.6446 10.2375 25.7448 10.2945 25.8301C10.3515 25.9153 10.4326 25.9817 10.5274 26.0209C10.6221 26.0601 10.7264 26.0703 10.827 26.0502C10.9275 26.0301 11.0199 25.9806 11.0923 25.9079L14.0498 22.9504C14.2442 22.756 14.5078 22.6467 14.7828 22.6467H24.72C25.2698 22.6467 25.7972 22.4283 26.186 22.0394C26.5748 21.6506 26.7932 21.1233 26.7932 20.5734V12.2803C26.7932 11.7304 26.5748 11.2031 26.186 10.8143C25.7972 10.4255 25.2698 10.207 24.72 10.207H12.2803Z" fill="#343E55"/>
</g>
<defs>
<clipPath id="clip0_27769_89337">
<rect width="16.5862" height="16.5862" fill="white" transform="translate(10.207 10.2109)"/>
</clipPath>
</defs>
</svg>
