<svg width="37" height="37" viewBox="0 0 37 37" fill="none" xmlns="http://www.w3.org/2000/svg">
<circle cx="18.5" cy="18.5" r="18.5" fill="#F3F5F6"/>
<g clip-path="url(#clip0_27769_89361)">
<path d="M21.61 12.2827C21.61 12.0078 21.7193 11.7441 21.9137 11.5497C22.1081 11.3553 22.3718 11.2461 22.6467 11.2461H24.72C24.9949 11.2461 25.2586 11.3553 25.453 11.5497C25.6474 11.7441 25.7566 12.0078 25.7566 12.2827V24.7224H26.2749C26.4124 24.7224 26.5442 24.777 26.6414 24.8742C26.7386 24.9714 26.7932 25.1032 26.7932 25.2407C26.7932 25.3782 26.7386 25.51 26.6414 25.6072C26.5442 25.7044 26.4124 25.759 26.2749 25.759H10.7254C10.5879 25.759 10.456 25.7044 10.3588 25.6072C10.2616 25.51 10.207 25.3782 10.207 25.2407C10.207 25.1032 10.2616 24.9714 10.3588 24.8742C10.456 24.777 10.5879 24.7224 10.7254 24.7224H11.2437V21.6125C11.2437 21.3375 11.3529 21.0739 11.5473 20.8795C11.7417 20.6851 12.0054 20.5758 12.2803 20.5758H14.3536C14.6285 20.5758 14.8922 20.6851 15.0866 20.8795C15.281 21.0739 15.3902 21.3375 15.3902 21.6125V24.7224H16.4269V17.4659C16.4269 17.191 16.5361 16.9273 16.7305 16.7329C16.9249 16.5385 17.1886 16.4293 17.4635 16.4293H19.5368C19.8117 16.4293 20.0754 16.5385 20.2698 16.7329C20.4642 16.9273 20.5734 17.191 20.5734 17.4659V24.7224H21.61V12.2827ZM22.6467 24.7224H24.72V12.2827H22.6467V24.7224ZM19.5368 24.7224V17.4659H17.4635V24.7224H19.5368ZM14.3536 24.7224V21.6125H12.2803V24.7224H14.3536Z" fill="#343E55"/>
</g>
<defs>
<clipPath id="clip0_27769_89361">
<rect width="16.5862" height="16.5862" fill="white" transform="translate(10.207 10.2109)"/>
</clipPath>
</defs>
</svg>
