<svg width="14" height="15" viewBox="0 0 14 15" fill="none" xmlns="http://www.w3.org/2000/svg">
<g clip-path="url(#clip0_29037_66826)">
<path d="M13.65 6.56199C13.6496 6.56167 13.6493 6.56125 13.649 6.56093L7.93805 0.850236C7.69462 0.606705 7.37098 0.472656 7.02673 0.472656C6.68248 0.472656 6.35884 0.606705 6.11531 0.850236L0.407394 6.55804C0.405472 6.55996 0.403442 6.56199 0.401626 6.56392C-0.0982525 7.06668 -0.097398 7.8824 0.404083 8.38388C0.633194 8.6131 0.935685 8.74576 1.25922 8.75975C1.27246 8.76103 1.28571 8.76167 1.29906 8.76167H1.52657V12.9643C1.52657 13.796 2.20333 14.4727 3.03507 14.4727H5.26936C5.4959 14.4727 5.67951 14.289 5.67951 14.0625V10.7676C5.67951 10.3881 5.98831 10.0794 6.36781 10.0794H7.68565C8.06515 10.0794 8.37384 10.3881 8.37384 10.7676V14.0625C8.37384 14.289 8.55745 14.4727 8.784 14.4727H11.0183C11.8501 14.4727 12.5268 13.796 12.5268 12.9643V8.76167H12.7378C13.082 8.76167 13.4056 8.62763 13.6493 8.38399C14.1513 7.88176 14.1515 7.06454 13.65 6.56199ZM13.0692 7.804C12.9806 7.89255 12.8629 7.94136 12.7378 7.94136H12.1166C11.8901 7.94136 11.7065 8.12497 11.7065 8.35152V12.9643C11.7065 13.3437 11.3978 13.6524 11.0183 13.6524H9.19415V10.7676C9.19415 9.93586 8.5175 9.2591 7.68565 9.2591H6.36781C5.53596 9.2591 4.8592 9.93586 4.8592 10.7676V13.6524H3.03507C2.65567 13.6524 2.34688 13.3437 2.34688 12.9643V8.35152C2.34688 8.12497 2.16327 7.94136 1.93672 7.94136H1.32619C1.31978 7.94093 1.31348 7.94061 1.30696 7.94051C1.18477 7.93837 1.07016 7.88988 0.984284 7.80389C0.801636 7.62125 0.801636 7.32399 0.984284 7.14123C0.984391 7.14123 0.984391 7.14113 0.984498 7.14102L0.984818 7.1407L6.69551 1.43022C6.78395 1.34168 6.90155 1.29297 7.02673 1.29297C7.15181 1.29297 7.26941 1.34168 7.35795 1.43022L13.0674 7.13952C13.0682 7.14038 13.0692 7.14123 13.07 7.14209C13.2517 7.32506 13.2514 7.62167 13.0692 7.804Z" fill="#878EAA"/>
</g>
<defs>
<clipPath id="clip0_29037_66826">
<rect width="14" height="14" fill="white" transform="translate(0 0.5)"/>
</clipPath>
</defs>
</svg>
