<svg width="14" height="14" viewBox="0 0 14 14" fill="none" xmlns="http://www.w3.org/2000/svg">
<g clip-path="url(#clip0_29037_30488)">
<path d="M11.0833 1.7487H7.27533C7.18512 1.74929 7.09595 1.72935 7.01458 1.69036L5.17358 0.766365C4.93056 0.645349 4.66282 0.582257 4.39133 0.582031H2.91667C2.1434 0.582958 1.40208 0.890546 0.855295 1.43733C0.308514 1.98411 0.00092625 2.72543 0 3.4987L0 10.4987C0.00092625 11.272 0.308514 12.0133 0.855295 12.5601C1.40208 13.1069 2.1434 13.4144 2.91667 13.4154H11.0833C11.8566 13.4144 12.5979 13.1069 13.1447 12.5601C13.6915 12.0133 13.9991 11.272 14 10.4987V4.66536C13.9991 3.8921 13.6915 3.15077 13.1447 2.60399C12.5979 2.05721 11.8566 1.74962 11.0833 1.7487ZM2.91667 1.7487H4.39133C4.48155 1.7481 4.57072 1.76805 4.65208 1.80703L6.49308 2.72811C6.73586 2.85014 7.00362 2.91423 7.27533 2.91536H11.0833C11.4322 2.91593 11.7729 3.02076 12.0618 3.21637C12.3506 3.41199 12.5744 3.68947 12.7044 4.0132L1.16667 4.07853V3.4987C1.16667 3.03457 1.35104 2.58945 1.67923 2.26126C2.00742 1.93307 2.45254 1.7487 2.91667 1.7487ZM11.0833 12.2487H2.91667C2.45254 12.2487 2.00742 12.0643 1.67923 11.7361C1.35104 11.4079 1.16667 10.9628 1.16667 10.4987V5.2452L12.8333 5.17928V10.4987C12.8333 10.9628 12.649 11.4079 12.3208 11.7361C11.9926 12.0643 11.5475 12.2487 11.0833 12.2487Z" fill="#878EAA"/>
</g>
<defs>
<clipPath id="clip0_29037_30488">
<rect width="14" height="14" fill="white"/>
</clipPath>
</defs>
</svg>
