<svg width="22" height="24" viewBox="0 0 22 24" fill="none" xmlns="http://www.w3.org/2000/svg">
<g clip-path="url(#clip0_28243_106530)">
<path d="M11 14C12.5217 14 13.75 12.66 13.75 11V5C13.75 3.34 12.5217 2 11 2C9.47833 2 8.25 3.34 8.25 5V11C8.25 12.66 9.47833 14 11 14Z" fill="white"/>
<path d="M15.584 11C15.584 13.76 13.5307 16 11.0007 16C8.47065 16 6.41732 13.76 6.41732 11H4.58398C4.58398 14.53 6.97648 17.43 10.084 17.92V21H11.9173V17.92C15.0248 17.43 17.4173 14.53 17.4173 11H15.584Z" fill="white"/>
</g>
<defs>
<clipPath id="clip0_28243_106530">
<rect width="22" height="24" fill="white"/>
</clipPath>
</defs>
</svg>
