<svg width="17" height="17" viewBox="0 0 17 17" fill="none" xmlns="http://www.w3.org/2000/svg">
<path d="M1.9375 14.45C1.67188 14.45 1.44906 14.3684 1.26906 14.2052C1.08969 14.0426 1 13.8408 1 13.6C1 13.3592 1.08969 13.1574 1.26906 12.9948C1.44906 12.8316 1.67188 12.75 1.9375 12.75H2.875V6.8C2.875 5.62417 3.26562 4.57923 4.04688 3.6652C4.82812 2.75173 5.84375 2.15333 7.09375 1.87V1.275C7.09375 0.920833 7.23062 0.619933 7.50437 0.3723C7.7775 0.1241 8.10938 0 8.5 0C8.89062 0 9.2225 0.1241 9.49563 0.3723C9.76937 0.619933 9.90625 0.920833 9.90625 1.275V1.87C11.1562 2.15333 12.1719 2.75173 12.9531 3.6652C13.7344 4.57923 14.125 5.62417 14.125 6.8V12.75H15.0625C15.3281 12.75 15.5506 12.8316 15.73 12.9948C15.91 13.1574 16 13.3592 16 13.6C16 13.8408 15.91 14.0426 15.73 14.2052C15.5506 14.3684 15.3281 14.45 15.0625 14.45H1.9375ZM8.5 17C7.98438 17 7.54313 16.8337 7.17625 16.5011C6.80875 16.1679 6.625 15.7675 6.625 15.3H10.375C10.375 15.7675 10.1916 16.1679 9.82469 16.5011C9.45719 16.8337 9.01562 17 8.5 17Z" fill="white"/>
</svg>
