<svg width="14" height="15" viewBox="0 0 14 15" fill="none" xmlns="http://www.w3.org/2000/svg">
<g clip-path="url(#clip0_29037_28519)">
<path d="M10.8383 1.74847L7.18368 0.52989C7.06403 0.490037 6.93467 0.490037 6.81502 0.52989L3.16043 1.74847C2.57938 1.94149 2.07393 2.31271 1.71589 2.80939C1.35786 3.30607 1.16545 3.90295 1.16602 4.51522V7.50014C1.16602 11.9119 6.53268 14.3485 6.76252 14.45C6.83708 14.4831 6.91776 14.5002 6.99935 14.5002C7.08094 14.5002 7.16162 14.4831 7.23618 14.45C7.46602 14.3485 12.8327 11.9119 12.8327 7.50014V4.51522C12.8332 3.90295 12.6408 3.30607 12.2828 2.80939C11.9248 2.31271 11.4193 1.94149 10.8383 1.74847ZM11.666 7.50014C11.666 10.6822 7.97993 12.7694 6.99935 13.2687C6.0176 12.7711 2.33268 10.6904 2.33268 7.50014V4.51522C2.33272 4.14789 2.44834 3.78987 2.66318 3.49191C2.87802 3.19394 3.18117 2.97114 3.52968 2.85506L6.99935 1.69831L10.469 2.85506C10.8175 2.97114 11.1207 3.19394 11.3355 3.49191C11.5504 3.78987 11.666 4.14789 11.666 4.51522V7.50014Z" fill="#878EAA"/>
<path d="M8.92594 5.34293L6.48294 7.79294L5.17394 6.42793C5.1214 6.3705 5.05791 6.32415 4.98719 6.29164C4.91647 6.25912 4.83996 6.24108 4.76216 6.23859C4.68436 6.2361 4.60685 6.2492 4.5342 6.27713C4.46154 6.30506 4.39521 6.34724 4.33911 6.4012C4.28301 6.45516 4.23828 6.5198 4.20755 6.59131C4.17682 6.66283 4.16071 6.73977 4.16017 6.8176C4.15963 6.89544 4.17468 6.9726 4.20442 7.04453C4.23417 7.11646 4.278 7.18171 4.33335 7.23644L5.67852 8.63644C5.77884 8.74479 5.90009 8.83168 6.03495 8.89184C6.1698 8.952 6.31546 8.98418 6.4631 8.98644H6.48235C6.62705 8.98692 6.77041 8.95865 6.90409 8.90327C7.03777 8.84789 7.15913 8.76651 7.2611 8.66386L9.7531 6.17185C9.80753 6.11754 9.85073 6.05304 9.88023 5.98203C9.90973 5.91102 9.92495 5.8349 9.92503 5.75801C9.92512 5.68112 9.91005 5.60496 9.8807 5.5339C9.85135 5.46283 9.80829 5.39823 9.75398 5.34381C9.69967 5.28938 9.63517 5.24618 9.56416 5.21668C9.49315 5.18718 9.41703 5.17196 9.34014 5.17188C9.26325 5.17179 9.18709 5.18686 9.11603 5.21621C9.04496 5.24556 8.98036 5.28862 8.92594 5.34293Z" fill="#878EAA"/>
</g>
<defs>
<clipPath id="clip0_29037_28519">
<rect width="14" height="14" fill="white" transform="translate(0 0.5)"/>
</clipPath>
</defs>
</svg>
