<svg width="36" height="36" viewBox="0 0 36 36" fill="none" xmlns="http://www.w3.org/2000/svg">
<circle cx="18" cy="18" r="18" fill="#F3F5F6"/>
<g clip-path="url(#clip0_28241_132471)">
<path d="M13.6545 11.3283C13.5954 11.2524 13.5209 11.1898 13.4359 11.1449C13.3508 11.1 13.2572 11.0737 13.1612 11.0677C13.0652 11.0618 12.969 11.0763 12.8791 11.1104C12.7891 11.1444 12.7074 11.1972 12.6395 11.2653L11.6055 12.3003C11.1225 12.7843 10.9445 13.4693 11.1555 14.0703C12.0322 16.5574 13.4566 18.8157 15.3235 20.6783C17.1861 22.5451 19.4444 23.9696 21.9315 24.8463C22.5325 25.0573 23.2175 24.8793 23.7015 24.3963L24.7355 23.3623C24.8035 23.2943 24.8563 23.2127 24.8904 23.1227C24.9245 23.0327 24.939 22.9366 24.933 22.8406C24.9271 22.7446 24.9008 22.6509 24.8558 22.5659C24.8109 22.4808 24.7484 22.4063 24.6725 22.3473L22.3655 20.5533C22.2843 20.4905 22.1899 20.4469 22.0895 20.4258C21.989 20.4046 21.8851 20.4065 21.7855 20.4313L19.5955 20.9783C19.3031 21.0509 18.997 21.0467 18.7067 20.9663C18.4164 20.8859 18.1518 20.7319 17.9385 20.5193L15.4825 18.0623C15.2697 17.8491 15.1155 17.5845 15.0349 17.2942C14.9543 17.0039 14.95 16.6977 15.0225 16.4053L15.5705 14.2153C15.5952 14.1157 15.5971 14.0118 15.576 13.9113C15.5549 13.8109 15.5113 13.7165 15.4485 13.6353L13.6545 11.3283ZM11.8845 10.5113C12.0595 10.3362 12.2697 10.2004 12.5012 10.1129C12.7327 10.0253 12.9802 9.98797 13.2273 10.0034C13.4743 10.0188 13.7152 10.0866 13.9341 10.2023C14.1529 10.3179 14.3446 10.4788 14.4965 10.6743L16.2905 12.9803C16.6195 13.4033 16.7355 13.9543 16.6055 14.4743L16.0585 16.6643C16.0304 16.7777 16.032 16.8965 16.0632 17.0091C16.0944 17.1218 16.154 17.2244 16.2365 17.3073L18.6935 19.7643C18.7764 19.8469 18.8793 19.9067 18.9921 19.9378C19.1049 19.969 19.2239 19.9706 19.3375 19.9423L21.5265 19.3953C21.7831 19.3315 22.0509 19.3267 22.3096 19.3813C22.5684 19.4358 22.8114 19.5483 23.0205 19.7103L25.3265 21.5043C26.1555 22.1493 26.2315 23.3743 25.4895 24.1153L24.4555 25.1493C23.7155 25.8893 22.6095 26.2143 21.5785 25.8513C18.9391 24.9239 16.543 23.413 14.5685 21.4313C12.5868 19.457 11.076 17.0613 10.1485 14.4223C9.78647 13.3923 10.1115 12.2853 10.8515 11.5453L11.8845 10.5113Z" fill="#343E55"/>
</g>
<defs>
<clipPath id="clip0_28241_132471">
<rect width="16" height="16" fill="white" transform="translate(10 10)"/>
</clipPath>
</defs>
</svg>
