<svg width="17" height="17" viewBox="0 0 17 17" fill="none" xmlns="http://www.w3.org/2000/svg">
<g clip-path="url(#clip0_28144_130955)">
<path d="M17 8.5C17 10.7543 16.1045 12.9163 14.5104 14.5104C12.9163 16.1045 10.7543 17 8.5 17C6.24566 17 4.08365 16.1045 2.48959 14.5104C0.895533 12.9163 0 10.7543 0 8.5C0 6.24566 0.895533 4.08365 2.48959 2.48959C4.08365 0.895533 6.24566 0 8.5 0C10.7543 0 12.9163 0.895533 14.5104 2.48959C16.1045 4.08365 17 6.24566 17 8.5ZM5.8395 6.41006H6.71606C6.86269 6.41006 6.97956 6.29 6.99869 6.14444C7.09431 5.44744 7.57244 4.93956 8.42456 4.93956C9.15344 4.93956 9.82069 5.304 9.82069 6.18056C9.82069 6.85525 9.42331 7.1655 8.79537 7.63725C8.08031 8.15681 7.514 8.7635 7.55438 9.74844L7.55756 9.979C7.55868 10.0487 7.58715 10.1152 7.63685 10.1641C7.68654 10.213 7.75347 10.2404 7.82319 10.2404H8.68487C8.75532 10.2404 8.82289 10.2124 8.8727 10.1626C8.92251 10.1128 8.9505 10.0452 8.9505 9.97475V9.86319C8.9505 9.10031 9.24056 8.87825 10.0236 8.28431C10.6707 7.79238 11.3454 7.24625 11.3454 6.09981C11.3454 4.49438 9.98962 3.71875 8.50531 3.71875C7.15913 3.71875 5.68438 4.34562 5.58344 6.14762C5.58198 6.18194 5.58756 6.21618 5.59983 6.24826C5.6121 6.28034 5.63081 6.30956 5.65479 6.33415C5.67877 6.35873 5.70753 6.37814 5.7393 6.3912C5.77106 6.40425 5.80516 6.41067 5.8395 6.41006ZM8.30981 13.2557C8.95794 13.2557 9.40313 12.8371 9.40313 12.2708C9.40313 11.6843 8.95687 11.2721 8.30981 11.2721C7.68931 11.2721 7.23775 11.6843 7.23775 12.2708C7.23775 12.8371 7.68825 13.2557 8.30981 13.2557Z" fill="white"/>
</g>
<defs>
<clipPath id="clip0_28144_130955">
<rect width="17" height="17" fill="white"/>
</clipPath>
</defs>
</svg>
