<svg width="14" height="15" viewBox="0 0 14 15" fill="none" xmlns="http://www.w3.org/2000/svg">
<g clip-path="url(#clip0_28430_97629)">
<path d="M14 7.5C14 9.35652 13.2625 11.137 11.9497 12.4497C10.637 13.7625 8.85652 14.5 7 14.5C5.14348 14.5 3.36301 13.7625 2.05025 12.4497C0.737498 11.137 0 9.35652 0 7.5C0 5.64348 0.737498 3.86301 2.05025 2.55025C3.36301 1.2375 5.14348 0.5 7 0.5C8.85652 0.5 10.637 1.2375 11.9497 2.55025C13.2625 3.86301 14 5.64348 14 7.5ZM4.809 5.77887H5.53088C5.65163 5.77887 5.74787 5.68 5.76363 5.56012C5.84237 4.98612 6.23612 4.56787 6.93787 4.56787C7.53813 4.56787 8.08763 4.868 8.08763 5.58987C8.08763 6.1455 7.76038 6.401 7.24325 6.7895C6.65438 7.21738 6.188 7.717 6.22125 8.52812L6.22388 8.718C6.22479 8.77541 6.24825 8.83015 6.28917 8.87042C6.33009 8.91069 6.38521 8.93326 6.44263 8.93325H7.15225C7.21027 8.93325 7.26591 8.9102 7.30693 8.86918C7.34795 8.82816 7.371 8.77252 7.371 8.7145V8.62263C7.371 7.99438 7.60988 7.8115 8.25475 7.32237C8.78763 6.91725 9.34325 6.4675 9.34325 5.52338C9.34325 4.20125 8.22675 3.5625 7.00437 3.5625C5.89575 3.5625 4.68125 4.07875 4.59812 5.56275C4.59693 5.59101 4.60152 5.61921 4.61163 5.64563C4.62173 5.67204 4.63713 5.69611 4.65689 5.71636C4.67664 5.7366 4.70032 5.75259 4.72648 5.76334C4.75264 5.77409 4.78072 5.77938 4.809 5.77887ZM6.84338 11.4165C7.37713 11.4165 7.74375 11.0717 7.74375 10.6054C7.74375 10.1224 7.37625 9.78288 6.84338 9.78288C6.33238 9.78288 5.9605 10.1224 5.9605 10.6054C5.9605 11.0717 6.3315 11.4165 6.84338 11.4165Z" fill="#4275D6"/>
</g>
<defs>
<clipPath id="clip0_28430_97629">
<rect width="14" height="14" fill="white" transform="translate(0 0.5)"/>
</clipPath>
</defs>
</svg>
