<svg width="14" height="14" viewBox="0 0 14 14" fill="none" xmlns="http://www.w3.org/2000/svg">
<g clip-path="url(#clip0_29037_59393)">
<path d="M9.91602 8.16668C9.91602 8.32139 9.85456 8.46976 9.74516 8.57916C9.63577 8.68855 9.48739 8.75001 9.33268 8.75001H4.66602C4.51131 8.75001 4.36293 8.68855 4.25354 8.57916C4.14414 8.46976 4.08268 8.32139 4.08268 8.16668C4.08268 8.01197 4.14414 7.8636 4.25354 7.7542C4.36293 7.6448 4.51131 7.58335 4.66602 7.58335H9.33268C9.48739 7.58335 9.63577 7.6448 9.74516 7.7542C9.85456 7.8636 9.91602 8.01197 9.91602 8.16668ZM7.58268 9.91668H4.66602C4.51131 9.91668 4.36293 9.97814 4.25354 10.0875C4.14414 10.1969 4.08268 10.3453 4.08268 10.5C4.08268 10.6547 4.14414 10.8031 4.25354 10.9125C4.36293 11.0219 4.51131 11.0833 4.66602 11.0833H7.58268C7.73739 11.0833 7.88576 11.0219 7.99516 10.9125C8.10456 10.8031 8.16602 10.6547 8.16602 10.5C8.16602 10.3453 8.10456 10.1969 7.99516 10.0875C7.88576 9.97814 7.73739 9.91668 7.58268 9.91668ZM12.8327 6.11626V11.0833C12.8318 11.8566 12.5242 12.5979 11.9774 13.1447C11.4306 13.6915 10.6893 13.9991 9.91602 14H4.08268C3.30942 13.9991 2.56809 13.6915 2.02131 13.1447C1.47453 12.5979 1.16694 11.8566 1.16602 11.0833V2.91668C1.16694 2.14342 1.47453 1.40209 2.02131 0.855308C2.56809 0.308528 3.30942 0.000939695 4.08268 1.34451e-05H6.71643C7.25288 -0.00136726 7.78427 0.103606 8.2799 0.308865C8.77552 0.514123 9.22554 0.815594 9.60393 1.19585L11.6363 3.22935C12.0167 3.60749 12.3184 4.05736 12.5238 4.55292C12.7291 5.04847 12.8341 5.57984 12.8327 6.11626ZM8.7791 2.02068C8.59551 1.84286 8.38939 1.68989 8.16602 1.56568V4.08335C8.16602 4.23806 8.22747 4.38643 8.33687 4.49583C8.44627 4.60522 8.59464 4.66668 8.74935 4.66668H11.267C11.1427 4.44337 10.9896 4.23743 10.8114 4.05418L8.7791 2.02068ZM11.666 6.11626C11.666 6.02001 11.6473 5.92785 11.6386 5.83335H8.74935C8.28522 5.83335 7.8401 5.64897 7.51191 5.32078C7.18372 4.99259 6.99935 4.54748 6.99935 4.08335V1.1941C6.90485 1.18535 6.8121 1.16668 6.71643 1.16668H4.08268C3.61855 1.16668 3.17343 1.35105 2.84525 1.67924C2.51706 2.00743 2.33268 2.45255 2.33268 2.91668V11.0833C2.33268 11.5475 2.51706 11.9926 2.84525 12.3208C3.17343 12.649 3.61855 12.8333 4.08268 12.8333H9.91602C10.3801 12.8333 10.8253 12.649 11.1535 12.3208C11.4816 11.9926 11.666 11.5475 11.666 11.0833V6.11626Z" fill="#878EAA"/>
</g>
<defs>
<clipPath id="clip0_29037_59393">
<rect width="14" height="14" fill="white"/>
</clipPath>
</defs>
</svg>
