<svg width="37" height="37" viewBox="0 0 37 37" fill="none" xmlns="http://www.w3.org/2000/svg">
<circle cx="18.5" cy="18.5" r="18.5" fill="#F3F5F6"/>
<g clip-path="url(#clip0_27769_89345)">
<path d="M21.8707 10.278C21.9721 10.3368 22.0506 10.4283 22.0934 10.5375C22.1361 10.6467 22.1406 10.7672 22.106 10.8792L20.239 16.9456H23.6837C23.785 16.9456 23.884 16.9752 23.9686 17.0308C24.0532 17.0864 24.1197 17.1655 24.1598 17.2585C24.1999 17.3514 24.212 17.4541 24.1944 17.5538C24.1769 17.6535 24.1305 17.7459 24.0611 17.8195L15.768 26.6309C15.6877 26.7163 15.5809 26.7719 15.465 26.7888C15.3491 26.8056 15.2309 26.7828 15.1297 26.7238C15.0284 26.6649 14.9501 26.5735 14.9075 26.4643C14.865 26.3552 14.8606 26.2349 14.8951 26.123L16.7621 20.0555H13.3174C13.2161 20.0556 13.1171 20.026 13.0325 19.9704C12.9479 19.9148 12.8814 19.8356 12.8413 19.7427C12.8012 19.6498 12.7891 19.5471 12.8067 19.4474C12.8242 19.3477 12.8706 19.2553 12.94 19.1817L21.2331 10.3702C21.3133 10.285 21.4199 10.2294 21.5356 10.2125C21.6514 10.1956 21.7695 10.2183 21.8707 10.2769V10.278ZM14.5167 19.0189H17.4639C17.545 19.0189 17.625 19.0379 17.6974 19.0744C17.7699 19.111 17.8327 19.164 17.8809 19.2292C17.9291 19.2945 17.9613 19.3701 17.9749 19.4501C17.9886 19.53 17.9833 19.6121 17.9594 19.6896L16.5413 24.2954L22.4833 17.9823H19.5372C19.4561 17.9823 19.3761 17.9633 19.3037 17.9267C19.2312 17.8902 19.1684 17.8372 19.1202 17.7719C19.072 17.7067 19.0398 17.6311 19.0261 17.5511C19.0125 17.4711 19.0178 17.3891 19.0417 17.3116L20.4598 12.7058L14.5167 19.0189Z" fill="#343E55"/>
</g>
<defs>
<clipPath id="clip0_27769_89345">
<rect width="16.5862" height="16.5862" fill="white" transform="translate(10.207 10.2109)"/>
</clipPath>
</defs>
</svg>
