<svg width="17" height="17" viewBox="0 0 17 17" fill="none" xmlns="http://www.w3.org/2000/svg">
<g clip-path="url(#clip0_28144_130959)">
<path d="M9.99281 1.11562C9.554 -0.371875 7.446 -0.371875 7.00719 1.11562L6.90094 1.47687C6.83537 1.69957 6.72079 1.90476 6.5656 2.07741C6.41041 2.25006 6.21855 2.38579 6.00408 2.47463C5.7896 2.56348 5.55797 2.60319 5.32615 2.59086C5.09433 2.57853 4.86821 2.51447 4.66437 2.40338L4.335 2.22275C2.97181 1.48112 1.48112 2.97181 2.22381 4.33394L2.40338 4.66437C2.87725 5.53562 2.42781 6.62044 1.47687 6.90094L1.11562 7.00719C-0.371875 7.446 -0.371875 9.554 1.11562 9.99281L1.47687 10.0991C1.69957 10.1646 1.90476 10.2792 2.07741 10.4344C2.25006 10.5896 2.38579 10.7815 2.47463 10.9959C2.56348 11.2104 2.60319 11.442 2.59086 11.6739C2.57853 11.9057 2.51447 12.1318 2.40338 12.3356L2.22275 12.665C1.48112 14.0282 2.97181 15.5189 4.33394 14.7762L4.66437 14.5966C4.86821 14.4855 5.09433 14.4215 5.32615 14.4091C5.55797 14.3968 5.7896 14.4365 6.00408 14.5254C6.21855 14.6142 6.41041 14.7499 6.5656 14.9226C6.72079 15.0952 6.83537 15.3004 6.90094 15.5231L7.00719 15.8844C7.446 17.3719 9.554 17.3719 9.99281 15.8844L10.0991 15.5231C10.1646 15.3004 10.2792 15.0952 10.4344 14.9226C10.5896 14.7499 10.7815 14.6142 10.9959 14.5254C11.2104 14.4365 11.442 14.3968 11.6739 14.4091C11.9057 14.4215 12.1318 14.4855 12.3356 14.5966L12.665 14.7773C14.0282 15.5189 15.5189 14.0282 14.7762 12.6661L14.5966 12.3356C14.4855 12.1318 14.4215 11.9057 14.4091 11.6739C14.3968 11.442 14.4365 11.2104 14.5254 10.9959C14.6142 10.7815 14.7499 10.5896 14.9226 10.4344C15.0952 10.2792 15.3004 10.1646 15.5231 10.0991L15.8844 9.99281C17.3719 9.554 17.3719 7.446 15.8844 7.00719L15.5231 6.90094C15.3004 6.83537 15.0952 6.72079 14.9226 6.5656C14.7499 6.41041 14.6142 6.21855 14.5254 6.00408C14.4365 5.7896 14.3968 5.55797 14.4091 5.32615C14.4215 5.09433 14.4855 4.86821 14.5966 4.66437L14.7773 4.335C15.5189 2.97181 14.0282 1.48112 12.6661 2.22381L12.3356 2.40338C12.1318 2.51447 11.9057 2.57853 11.6739 2.59086C11.442 2.60319 11.2104 2.56348 10.9959 2.47463C10.7815 2.38579 10.5896 2.25006 10.4344 2.07741C10.2792 1.90476 10.1646 1.69957 10.0991 1.47687L9.99281 1.11562ZM8.5 11.6131C7.67435 11.6131 6.88251 11.2851 6.29869 10.7013C5.71486 10.1175 5.38688 9.32565 5.38688 8.5C5.38688 7.67435 5.71486 6.88251 6.29869 6.29869C6.88251 5.71486 7.67435 5.38688 8.5 5.38688C9.32537 5.38688 10.1169 5.71475 10.7006 6.29838C11.2842 6.882 11.6121 7.67357 11.6121 8.49894C11.6121 9.32431 11.2842 10.1159 10.7006 10.6995C10.1169 11.2831 9.32537 11.611 8.5 11.611V11.6131Z" fill="white"/>
</g>
<defs>
<clipPath id="clip0_28144_130959">
<rect width="17" height="17" fill="white"/>
</clipPath>
</defs>
</svg>
