<svg width="36" height="36" viewBox="0 0 36 36" fill="none" xmlns="http://www.w3.org/2000/svg">
<circle cx="18" cy="18" r="18" fill="#F3F5F6"/>
<path d="M12.97 11.35C13.0639 11.2402 13.1804 11.1521 13.3116 11.0917C13.4428 11.0313 13.5856 11 13.73 11H22.27C22.4144 11 22.5572 11.0313 22.6884 11.0917C22.8196 11.1521 22.9361 11.2402 23.03 11.35L25.639 14.394C25.8719 14.6658 26 15.012 26 15.37V15.625C26.0001 16.12 25.8455 16.6026 25.5578 17.0054C25.2702 17.4082 24.8639 17.7111 24.3957 17.8717C23.9275 18.0324 23.4208 18.0427 22.9465 17.9013C22.4721 17.7599 22.0538 17.4738 21.75 17.083C21.5282 17.3688 21.2439 17.6001 20.9189 17.759C20.5939 17.918 20.2368 18.0004 19.875 18C19.5132 18.0004 19.1561 17.918 18.8311 17.759C18.5061 17.6001 18.2218 17.3688 18 17.083C17.7782 17.3688 17.4939 17.6001 17.1689 17.759C16.8439 17.918 16.4868 18.0004 16.125 18C15.7632 18.0004 15.4061 17.918 15.0811 17.759C14.7561 17.6001 14.4718 17.3688 14.25 17.083C13.9462 17.4738 13.5279 17.7599 13.0535 17.9013C12.5792 18.0427 12.0725 18.0324 11.6043 17.8717C11.1361 17.7111 10.7298 17.4082 10.4422 17.0054C10.1545 16.6026 9.99995 16.12 10 15.625V15.37C10 15.012 10.1281 14.6658 10.361 14.394L12.97 11.35ZM14.75 15.625C14.75 15.9897 14.8949 16.3394 15.1527 16.5973C15.4106 16.8551 15.7603 17 16.125 17C16.4897 17 16.8394 16.8551 17.0973 16.5973C17.3551 16.3394 17.5 15.9897 17.5 15.625C17.5 15.4924 17.5527 15.3652 17.6464 15.2714C17.7402 15.1777 17.8674 15.125 18 15.125C18.1326 15.125 18.2598 15.1777 18.3536 15.2714C18.4473 15.3652 18.5 15.4924 18.5 15.625C18.5 15.9897 18.6449 16.3394 18.9027 16.5973C19.1606 16.8551 19.5103 17 19.875 17C20.2397 17 20.5894 16.8551 20.8473 16.5973C21.1051 16.3394 21.25 15.9897 21.25 15.625C21.25 15.4924 21.3027 15.3652 21.3964 15.2714C21.4902 15.1777 21.6174 15.125 21.75 15.125C21.8826 15.125 22.0098 15.1777 22.1036 15.2714C22.1973 15.3652 22.25 15.4924 22.25 15.625C22.25 15.9897 22.3949 16.3394 22.6527 16.5973C22.9106 16.8551 23.2603 17 23.625 17C23.9897 17 24.3394 16.8551 24.5973 16.5973C24.8551 16.3394 25 15.9897 25 15.625V15.37C25 15.2508 24.9575 15.1356 24.88 15.045L22.27 12H13.73L11.12 15.045C11.0425 15.1356 11 15.2508 11 15.37V15.625C11 15.9897 11.1449 16.3394 11.4027 16.5973C11.6606 16.8551 12.0103 17 12.375 17C12.7397 17 13.0894 16.8551 13.3473 16.5973C13.6051 16.3394 13.75 15.9897 13.75 15.625C13.75 15.4924 13.8027 15.3652 13.8964 15.2714C13.9902 15.1777 14.1174 15.125 14.25 15.125C14.3826 15.125 14.5098 15.1777 14.6036 15.2714C14.6973 15.3652 14.75 15.4924 14.75 15.625ZM11.5 18.5C11.6326 18.5 11.7598 18.5527 11.8536 18.6464C11.9473 18.7402 12 18.8674 12 19V25H24V19C24 18.8674 24.0527 18.7402 24.1464 18.6464C24.2402 18.5527 24.3674 18.5 24.5 18.5C24.6326 18.5 24.7598 18.5527 24.8536 18.6464C24.9473 18.7402 25 18.8674 25 19V25H25.5C25.6326 25 25.7598 25.0527 25.8536 25.1464C25.9473 25.2402 26 25.3674 26 25.5C26 25.6326 25.9473 25.7598 25.8536 25.8536C25.7598 25.9473 25.6326 26 25.5 26H10.5C10.3674 26 10.2402 25.9473 10.1464 25.8536C10.0527 25.7598 10 25.6326 10 25.5C10 25.3674 10.0527 25.2402 10.1464 25.1464C10.2402 25.0527 10.3674 25 10.5 25H11V19C11 18.8674 11.0527 18.7402 11.1464 18.6464C11.2402 18.5527 11.3674 18.5 11.5 18.5ZM13.5 19C13.6326 19 13.7598 19.0527 13.8536 19.1464C13.9473 19.2402 14 19.3674 14 19.5V23H22V19.5C22 19.3674 22.0527 19.2402 22.1464 19.1464C22.2402 19.0527 22.3674 19 22.5 19C22.6326 19 22.7598 19.0527 22.8536 19.1464C22.9473 19.2402 23 19.3674 23 19.5V23C23 23.2652 22.8946 23.5196 22.7071 23.7071C22.5196 23.8946 22.2652 24 22 24H14C13.7348 24 13.4804 23.8946 13.2929 23.7071C13.1054 23.5196 13 23.2652 13 23V19.5C13 19.3674 13.0527 19.2402 13.1464 19.1464C13.2402 19.0527 13.3674 19 13.5 19Z" fill="#343E55"/>
</svg>
