<svg width="42" height="42" viewBox="0 0 42 42" fill="none" xmlns="http://www.w3.org/2000/svg">
<path d="M34.775 8.24877C34.746 8.03877 34.5621 7.92255 34.41 7.90975C34.2583 7.89709 31.0467 7.65904 31.0467 7.65904C31.0467 7.65904 28.8163 5.44469 28.5715 5.1996C28.3265 4.95464 27.8481 5.02915 27.6624 5.08381C27.6351 5.09186 27.1751 5.23383 26.4142 5.46929C25.6692 3.32527 24.3542 1.35501 22.0409 1.35501C21.977 1.35501 21.9113 1.3576 21.8456 1.36134C21.1877 0.491281 20.3727 0.113281 19.6688 0.113281C14.28 0.113281 11.7055 6.84982 10.8982 10.2731C8.80429 10.922 7.31674 11.3832 7.12673 11.4429C5.95792 11.8096 5.92096 11.8464 5.76748 12.9477C5.65198 13.7815 2.59375 37.4323 2.59375 37.4323L26.4242 41.8972L39.3363 39.104C39.3363 39.104 34.8034 8.45877 34.775 8.24877ZM25.0971 5.87663L23.0807 6.50073C23.0814 6.35862 23.0821 6.21882 23.0821 6.06592C23.0821 4.73343 22.8972 3.66056 22.6004 2.81006C23.7924 2.95964 24.5862 4.31587 25.0971 5.87663ZM21.1218 3.07428C21.4532 3.90464 21.6687 5.09632 21.6687 6.7044C21.6687 6.78668 21.6679 6.86191 21.6672 6.93799C20.3559 7.34419 18.9309 7.78519 17.5027 8.22762C18.3046 5.13286 19.8077 3.63812 21.1218 3.07428ZM19.5208 1.55869C19.7533 1.55869 19.9876 1.63765 20.2119 1.79199C18.4849 2.60466 16.6337 4.65144 15.8519 8.73882L12.5601 9.75832C13.4758 6.64069 15.6501 1.55869 19.5208 1.55869Z" fill="#95BF46"/>
<path d="M34.4105 7.90729C34.2588 7.89463 31.0472 7.65658 31.0472 7.65658C31.0472 7.65658 28.8168 5.44223 28.572 5.19714C28.4803 5.10595 28.3568 5.0592 28.2276 5.03906L26.4258 41.8945L39.3368 39.1015C39.3368 39.1015 34.8039 8.45631 34.7754 8.24631C34.7465 8.03631 34.5626 7.92009 34.4105 7.90729Z" fill="#5E8E3E"/>
<path d="M22.0417 15.0419L20.4496 19.7779C20.4496 19.7779 19.0547 19.0334 17.3448 19.0334C14.838 19.0334 14.7118 20.6065 14.7118 21.0029C14.7118 23.1659 20.3502 23.9947 20.3502 29.0612C20.3502 33.0473 17.822 35.614 14.4131 35.614C10.3224 35.614 8.23047 33.0681 8.23047 33.0681L9.32578 29.4492C9.32578 29.4492 11.4761 31.2954 13.2906 31.2954C14.4762 31.2954 14.9585 30.3619 14.9585 29.6798C14.9585 26.8583 10.3328 26.7325 10.3328 22.0962C10.3328 18.1941 13.1335 14.418 18.7871 14.418C20.9655 14.418 22.0417 15.0419 22.0417 15.0419Z" fill="white"/>
</svg>
