<svg width="14" height="15" viewBox="0 0 14 15" fill="none" xmlns="http://www.w3.org/2000/svg">
<path d="M3.9375 5.75C4.05353 5.75 4.16481 5.70391 4.24686 5.62186C4.32891 5.53981 4.375 5.42853 4.375 5.3125C4.375 5.19647 4.32891 5.08519 4.24686 5.00314C4.16481 4.92109 4.05353 4.875 3.9375 4.875C3.82147 4.875 3.71019 4.92109 3.62814 5.00314C3.54609 5.08519 3.5 5.19647 3.5 5.3125C3.5 5.42853 3.54609 5.53981 3.62814 5.62186C3.71019 5.70391 3.82147 5.75 3.9375 5.75ZM5.25 5.75C5.36603 5.75 5.47731 5.70391 5.55936 5.62186C5.64141 5.53981 5.6875 5.42853 5.6875 5.3125C5.6875 5.19647 5.64141 5.08519 5.55936 5.00314C5.47731 4.92109 5.36603 4.875 5.25 4.875C5.13397 4.875 5.02269 4.92109 4.94064 5.00314C4.85859 5.08519 4.8125 5.19647 4.8125 5.3125C4.8125 5.42853 4.85859 5.53981 4.94064 5.62186C5.02269 5.70391 5.13397 5.75 5.25 5.75ZM7 5.3125C7 5.42853 6.95391 5.53981 6.87186 5.62186C6.78981 5.70391 6.67853 5.75 6.5625 5.75C6.44647 5.75 6.33519 5.70391 6.25314 5.62186C6.17109 5.53981 6.125 5.42853 6.125 5.3125C6.125 5.19647 6.17109 5.08519 6.25314 5.00314C6.33519 4.92109 6.44647 4.875 6.5625 4.875C6.67853 4.875 6.78981 4.92109 6.87186 5.00314C6.95391 5.08519 7 5.19647 7 5.3125Z" fill="#878EAA"/>
<path d="M10.5 1.375C10.9641 1.375 11.4092 1.55937 11.7374 1.88756C12.0656 2.21575 12.25 2.66087 12.25 3.125C12.7141 3.125 13.1592 3.30937 13.4874 3.63756C13.8156 3.96575 14 4.41087 14 4.875V11.875C14 12.3391 13.8156 12.7842 13.4874 13.1124C13.1592 13.4406 12.7141 13.625 12.25 13.625H3.5C3.03587 13.625 2.59075 13.4406 2.26256 13.1124C1.93437 12.7842 1.75 12.3391 1.75 11.875C1.28587 11.875 0.840752 11.6906 0.512563 11.3624C0.184374 11.0342 0 10.5891 0 10.125V3.125C0 2.66087 0.184374 2.21575 0.512563 1.88756C0.840752 1.55937 1.28587 1.375 1.75 1.375H10.5ZM1.75 11V4.875C1.75 4.41087 1.93437 3.96575 2.26256 3.63756C2.59075 3.30937 3.03587 3.125 3.5 3.125H11.375C11.375 2.89294 11.2828 2.67038 11.1187 2.50628C10.9546 2.34219 10.7321 2.25 10.5 2.25H1.75C1.51794 2.25 1.29538 2.34219 1.13128 2.50628C0.967187 2.67038 0.875 2.89294 0.875 3.125V10.125C0.875 10.3571 0.967187 10.5796 1.13128 10.7437C1.29538 10.9078 1.51794 11 1.75 11ZM2.625 7.5V11.875C2.625 12.1071 2.71719 12.3296 2.88128 12.4937C3.04538 12.6578 3.26794 12.75 3.5 12.75H12.25C12.4821 12.75 12.7046 12.6578 12.8687 12.4937C13.0328 12.3296 13.125 12.1071 13.125 11.875V7.5H2.625ZM13.125 6.625V4.875C13.125 4.64294 13.0328 4.42038 12.8687 4.25628C12.7046 4.09219 12.4821 4 12.25 4H3.5C3.26794 4 3.04538 4.09219 2.88128 4.25628C2.71719 4.42038 2.625 4.64294 2.625 4.875V6.625H13.125Z" fill="#878EAA"/>
</svg>
