<svg width="37" height="37" viewBox="0 0 37 37" fill="none" xmlns="http://www.w3.org/2000/svg">
<circle cx="18.5" cy="18.5" r="18.5" fill="#F3F5F6"/>
<g clip-path="url(#clip0_27769_89353)">
<path d="M25.7566 24.7209C25.7566 24.7209 26.7932 24.7209 26.7932 23.6843C26.7932 22.6476 25.7566 19.5377 21.61 19.5377C17.4635 19.5377 16.4269 22.6476 16.4269 23.6843C16.4269 24.7209 17.4635 24.7209 17.4635 24.7209H25.7566ZM17.4863 23.6843L17.4635 23.6801C17.4645 23.4064 17.6366 22.6124 18.2513 21.8971C18.8236 21.2264 19.8291 20.5744 21.61 20.5744C23.39 20.5744 24.3955 21.2274 24.9688 21.8971C25.5835 22.6124 25.7545 23.4075 25.7566 23.6801L25.7483 23.6822L25.7338 23.6843H17.4863ZM21.61 17.4644C22.1599 17.4644 22.6873 17.246 23.0761 16.8572C23.4649 16.4684 23.6833 15.941 23.6833 15.3912C23.6833 14.8413 23.4649 14.314 23.0761 13.9251C22.6873 13.5363 22.1599 13.3179 21.61 13.3179C21.0602 13.3179 20.5328 13.5363 20.144 13.9251C19.7552 14.314 19.5368 14.8413 19.5368 15.3912C19.5368 15.941 19.7552 16.4684 20.144 16.8572C20.5328 17.246 21.0602 17.4644 21.61 17.4644ZM24.72 15.3912C24.72 15.7996 24.6395 16.204 24.4832 16.5813C24.3269 16.9586 24.0979 17.3014 23.8091 17.5902C23.5203 17.879 23.1775 18.1081 22.8002 18.2643C22.4228 18.4206 22.0184 18.5011 21.61 18.5011C21.2016 18.5011 20.7972 18.4206 20.4199 18.2643C20.0426 18.1081 19.6998 17.879 19.411 17.5902C19.1222 17.3014 18.8932 16.9586 18.7369 16.5813C18.5806 16.204 18.5001 15.7996 18.5001 15.3912C18.5001 14.5664 18.8278 13.7753 19.411 13.1921C19.9942 12.6089 20.7852 12.2813 21.61 12.2812C22.4348 12.2812 23.2259 12.6089 23.8091 13.1921C24.3923 13.7753 24.72 14.5664 24.72 15.3912ZM17.3972 19.828C16.9822 19.6983 16.5549 19.6125 16.1221 19.5719C15.8789 19.5482 15.6346 19.5368 15.3902 19.5377C11.2437 19.5377 10.207 22.6476 10.207 23.6843C10.207 24.3754 10.5526 24.7209 11.2437 24.7209H15.6141C15.4605 24.3973 15.3839 24.0425 15.3902 23.6843C15.3902 22.6373 15.781 21.5675 16.5202 20.6739C16.7721 20.3691 17.0654 20.084 17.3972 19.828ZM15.3073 20.5744C14.6941 21.4964 14.3628 22.577 14.3536 23.6843H11.2437C11.2437 23.4147 11.4137 22.6165 12.0315 21.8971C12.5965 21.2378 13.5782 20.5951 15.3073 20.5754V20.5744ZM11.762 15.9095C11.762 15.0847 12.0896 14.2937 12.6729 13.7104C13.2561 13.1272 14.0471 12.7996 14.8719 12.7996C15.6967 12.7996 16.4877 13.1272 17.0709 13.7104C17.6542 14.2937 17.9818 15.0847 17.9818 15.9095C17.9818 16.7343 17.6542 17.5253 17.0709 18.1085C16.4877 18.6917 15.6967 19.0194 14.8719 19.0194C14.0471 19.0194 13.2561 18.6917 12.6729 18.1085C12.0896 17.5253 11.762 16.7343 11.762 15.9095ZM14.8719 13.8362C14.322 13.8362 13.7947 14.0546 13.4059 14.4435C13.0171 14.8323 12.7986 15.3596 12.7986 15.9095C12.7986 16.4593 13.0171 16.9867 13.4059 17.3755C13.7947 17.7643 14.322 17.9828 14.8719 17.9828C15.4218 17.9828 15.9491 17.7643 16.3379 17.3755C16.7267 16.9867 16.9452 16.4593 16.9452 15.9095C16.9452 15.3596 16.7267 14.8323 16.3379 14.4435C15.9491 14.0546 15.4218 13.8362 14.8719 13.8362Z" fill="#343E55"/>
</g>
<defs>
<clipPath id="clip0_27769_89353">
<rect width="16.5862" height="16.5862" fill="white" transform="translate(10.207 10.2109)"/>
</clipPath>
</defs>
</svg>
