<svg width="14" height="14" viewBox="0 0 14 14" fill="none" xmlns="http://www.w3.org/2000/svg">
<g clip-path="url(#clip0_29037_97446)">
<path d="M11.9009 2.0353C11.2592 1.38736 10.4948 0.873688 9.6525 0.524255C8.81017 0.174822 7.90668 -0.00337822 6.99475 4.84969e-05C3.17362 4.84969e-05 0.0595 3.1133 0.056 6.9353C0.056 8.15942 0.37625 9.3503 0.980875 10.4047L0 14L3.6785 13.0358C4.69568 13.5908 5.83604 13.8811 6.99475 13.8802H6.99825C10.8203 13.8802 13.9335 10.7669 13.937 6.94142C13.9378 6.02973 13.7582 5.12688 13.4086 4.28487C13.059 3.44287 12.5472 2.67833 11.9009 2.0353ZM6.99475 12.7059C5.96153 12.7051 4.94745 12.4271 4.05825 11.9009L3.84825 11.7749L1.666 12.3472L2.24875 10.2183L2.11225 9.99867C1.53458 9.08021 1.22907 8.01682 1.23112 6.9318C1.23112 3.75905 3.8185 1.1708 6.99825 1.1708C7.75577 1.16944 8.50607 1.31804 9.20589 1.60803C9.90571 1.89802 10.5412 2.32366 11.0758 2.86042C11.612 3.39518 12.0372 4.03077 12.3267 4.73058C12.6163 5.43039 12.7645 6.18058 12.7628 6.93792C12.7593 10.122 10.1719 12.7059 6.99475 12.7059ZM10.1579 8.38867C9.9855 8.30205 9.13412 7.88292 8.974 7.82342C8.81475 7.76655 8.69837 7.7368 8.58463 7.91005C8.46825 8.08242 8.13575 8.4753 8.036 8.58817C7.93625 8.70455 7.833 8.71767 7.65975 8.63192C7.48737 8.54442 6.92825 8.36242 6.26675 7.77005C5.7505 7.31067 5.40487 6.74192 5.30163 6.56955C5.20188 6.3963 5.292 6.30355 5.37862 6.21692C5.45475 6.13992 5.551 6.01392 5.63762 5.91417C5.72512 5.81442 5.754 5.74092 5.81087 5.62542C5.86775 5.50817 5.84062 5.40842 5.79775 5.3218C5.754 5.23517 5.40837 4.3803 5.26225 4.03555C5.12225 3.69517 4.97962 3.74242 4.87287 3.73805C4.77312 3.73192 4.65675 3.73192 4.54038 3.73192C4.4525 3.73416 4.36604 3.75451 4.28639 3.7917C4.20674 3.82889 4.13563 3.88211 4.0775 3.94805C3.91825 4.1213 3.47288 4.54042 3.47288 5.3953C3.47288 6.25017 4.09412 7.0718 4.18162 7.18817C4.26737 7.30455 5.40137 9.05367 7.14175 9.80617C7.553 9.98555 7.87675 10.0914 8.12963 10.1719C8.54525 10.3049 8.92062 10.2848 9.21987 10.2419C9.55237 10.1912 10.2445 9.82192 10.3906 9.4168C10.5341 9.0108 10.5341 8.6643 10.4904 8.59167C10.4475 8.51817 10.3311 8.4753 10.1579 8.38867Z" fill="#878EAA"/>
</g>
<defs>
<clipPath id="clip0_29037_97446">
<rect width="14" height="14" fill="white"/>
</clipPath>
</defs>
</svg>
