<svg width="17" height="17" viewBox="0 0 17 17" fill="none" xmlns="http://www.w3.org/2000/svg">
<g clip-path="url(#clip0_28243_106517)">
<path d="M16.6668 5.2365V14.2018C16.6668 15.0267 15.9975 15.696 15.1726 15.696H2.22273C1.3978 15.696 0.728516 15.0267 0.728516 14.2018V5.2365C0.728516 4.41157 1.3978 3.74229 2.22273 3.74229H4.96213L5.34502 2.71813C5.56293 2.13601 6.12014 1.75 6.74273 1.75H10.6495C11.2721 1.75 11.8293 2.13601 12.0472 2.71813L12.4332 3.74229H15.1726C15.9975 3.74229 16.6668 4.41157 16.6668 5.2365ZM12.4332 9.71915C12.4332 7.65838 10.7584 5.98361 8.69767 5.98361C6.63689 5.98361 4.96213 7.65838 4.96213 9.71915C4.96213 11.7799 6.63689 13.4547 8.69767 13.4547C10.7584 13.4547 12.4332 11.7799 12.4332 9.71915ZM11.4371 9.71915C11.4371 11.2289 10.2074 12.4585 8.69767 12.4585C7.18789 12.4585 5.95827 11.2289 5.95827 9.71915C5.95827 8.20937 7.18789 6.97976 8.69767 6.97976C10.2074 6.97976 11.4371 8.20937 11.4371 9.71915Z" fill="#899AA2"/>
</g>
<defs>
<clipPath id="clip0_28243_106517">
<rect width="15.9383" height="15.9383" fill="white" transform="translate(0.728516 0.75)"/>
</clipPath>
</defs>
</svg>
