<svg width="38" height="38" viewBox="0 0 38 38" fill="none" xmlns="http://www.w3.org/2000/svg">
<path d="M37.9479 23.9609C36.2719 30.894 30.7926 36.3395 23.8418 37.971L32.5948 37.9213C32.7903 37.9319 32.984 37.9301 33.1759 37.9177H33.1813C35.6125 37.7542 37.6351 35.8205 37.8625 33.3555V33.3431C37.8874 33.0694 37.8928 32.7886 37.8697 32.5024L37.9479 23.9609Z" fill="#DBDBDB"/>
<path d="M0.0764219 32.5948C0.0657584 32.7903 0.0675356 32.984 0.0799764 33.176V33.1813C0.243484 35.6126 2.17714 37.6351 4.64219 37.8626H4.65463C4.92832 37.8875 5.20913 37.8928 5.49527 37.8697L18.7287 37.9906C18.8193 37.9906 18.9082 37.9977 18.9988 37.9977C19.0415 37.9977 19.0824 37.9941 19.125 37.9941L19.4751 37.9977L19.4716 37.9852C29.7459 37.7346 37.9995 29.3318 37.9995 18.9971C37.9995 8.66233 29.4917 0 18.9988 0C8.50593 0 0 8.50593 0 18.9988L0.0764219 32.5948Z" fill="#2BBBC9"/>
<path d="M27.4024 23.2656C26.9439 23.0363 24.6939 21.9291 24.2744 21.7762C23.855 21.6234 23.5493 21.547 23.2436 22.0055C22.9379 22.464 22.0618 23.4948 21.7934 23.8005C21.5268 24.1062 21.2584 24.1435 20.8017 23.916C20.3449 23.6868 18.8698 23.2034 17.121 21.6429C15.7596 20.4291 14.8408 18.9308 14.5742 18.4723C14.3076 18.0138 14.5458 17.7667 14.775 17.5375C14.9812 17.3313 15.2335 17.0025 15.4628 16.7359C15.6921 16.4693 15.7685 16.2774 15.9196 15.9717C16.0724 15.666 15.996 15.3994 15.8822 15.1702C15.7685 14.9409 14.8532 12.6874 14.4711 11.7703C14.0997 10.8781 13.7211 10.999 13.4403 10.9847C13.1737 10.9705 12.868 10.9688 12.5623 10.9688C12.2566 10.9688 11.7608 11.0825 11.3414 11.541C10.9219 11.9996 9.73828 13.1068 9.73828 15.3603C9.73828 17.6139 11.3787 19.791 11.608 20.0967C11.8372 20.4024 14.8354 25.025 19.4279 27.0102C20.5191 27.4812 21.3722 27.7638 22.0369 27.9753C23.1334 28.3236 24.1323 28.2739 24.9214 28.1566C25.8011 28.025 27.6299 27.0493 28.012 25.9812C28.3941 24.9113 28.3941 23.9942 28.2786 23.8041C28.1648 23.6139 27.8592 23.4984 27.4006 23.2691" fill="white"/>
</svg>
