<svg width="27" height="33" viewBox="0 0 27 33" fill="none" xmlns="http://www.w3.org/2000/svg">
<g clip-path="url(#clip0_28243_106514)">
<path d="M12.6199 9.84821L18.9298 17.5135C20.1424 18.9865 20.1424 21.3727 18.9298 22.8458C17.7172 24.3188 15.7529 24.3188 14.5403 22.8458L7.68181 14.514C6.92463 13.5942 6.92463 12.1011 7.68181 11.1813C8.43899 10.2615 9.66804 10.2615 10.4252 11.1813L16.1864 18.18C16.4881 18.5466 16.4881 19.1465 16.1864 19.5131C15.8846 19.8797 15.3908 19.8797 15.089 19.5131L9.87653 13.1809L9.05351 14.1807L14.266 20.5129C15.0232 21.4327 16.2522 21.4327 17.0094 20.5129C17.7666 19.5931 17.7666 18.1 17.0094 17.1802L11.2482 10.1815C10.0357 8.70843 8.07137 8.70843 6.85879 10.1815C5.6462 11.6545 5.6462 14.0408 6.85879 15.5138L13.7173 23.8456C15.3853 25.8719 18.0848 25.8719 19.7528 23.8456C21.4208 21.8193 21.4208 18.5399 19.7528 16.5136L13.443 8.8484L12.6199 9.84821Z" fill="#86979F"/>
</g>
<defs>
<clipPath id="clip0_28243_106514">
<rect width="20.7198" height="20.7198" fill="white" transform="matrix(0.635544 -0.772064 0.635544 0.772064 0.275391 16.8477)"/>
</clipPath>
</defs>
</svg>
